<svg width="122" height="40" viewBox="0 0 122 40" fill="none" xmlns="http://www.w3.org/2000/svg">
<path d="M34.8819 20.6251V10.8932C34.8819 10.6993 34.7656 10.5055 34.6105 10.3504C34.4554 10.1953 34.2616 10.1177 34.0289 10.1177H30.1517C29.919 10.1177 29.7252 10.1953 29.5701 10.3504C29.3762 10.5055 29.2987 10.6993 29.2987 10.8932V21.5557C29.2987 22.7576 29.4538 23.8432 29.8027 24.8126C30.1517 25.8206 30.6557 26.6349 31.3149 27.3328C31.974 28.0307 32.7882 28.5735 33.7575 28.9612C34.6881 29.349 35.7737 29.5428 36.9757 29.5428C38.449 29.5428 39.6122 29.3102 40.4652 28.8449C41.3182 28.3796 42.0161 27.7593 42.6365 27.0226V28.2245C42.6365 28.4572 42.714 28.651 42.8691 28.8061C43.0242 28.9612 43.2181 29 43.4507 29H47.3667C47.5994 29 47.832 28.9225 47.9871 28.7674C48.1422 28.6123 48.2197 28.4184 48.2197 28.1858V10.9707C48.2197 10.7381 48.1422 10.5442 47.9871 10.3891C47.832 10.234 47.5994 10.1177 47.3667 10.1177H43.4507C43.2181 10.1177 43.0242 10.1953 42.8691 10.3504C42.714 10.5055 42.6365 10.6993 42.6365 10.8932V20.7027C42.6365 21.9434 42.2875 22.9127 41.6284 23.6881C40.9305 24.4636 39.9612 24.8126 38.7204 24.8126C37.4022 24.8126 36.4328 24.4248 35.8125 23.6494C35.1921 22.8739 34.8819 21.8658 34.8819 20.6251ZM57.1505 28.1858V21.2067H58.6238L63.3153 28.3021C63.5867 28.7674 63.9744 29 64.4785 29H68.8598C69.2863 29 69.5577 28.8837 69.7128 28.5735C69.8291 28.2633 69.7903 27.9531 69.5965 27.6042L63.3153 18.4926L68.7047 11.4748C68.9373 11.1646 68.9761 10.8544 68.8986 10.5442C68.7822 10.2728 68.5108 10.1177 68.1231 10.1177H63.9357C63.703 10.1177 63.5092 10.1953 63.3153 10.2728C63.1214 10.3504 62.9664 10.5442 62.8113 10.7769L58.5075 16.7091H57.1505V2.67338C57.1505 2.44074 57.0729 2.24688 56.9178 2.09179C56.7627 1.9367 56.5689 1.85915 56.3362 1.85915H52.4202C52.1876 1.85915 51.9549 1.9367 51.7998 2.09179C51.6447 2.24688 51.5672 2.44074 51.5672 2.67338V28.1858C51.5672 28.4184 51.6447 28.6123 51.7998 28.7674C51.9549 28.9225 52.1876 29 52.4202 29H56.3362C56.5689 29 56.7627 28.9225 56.9178 28.7674C57.0729 28.6123 57.1505 28.4184 57.1505 28.1858ZM74.1247 8.10155C75.0165 8.10155 75.7919 7.79137 76.4511 7.09346C77.1102 6.43432 77.4591 5.65887 77.4591 4.72833C77.4591 3.79778 77.1102 3.02233 76.4511 2.32443C75.7919 1.66529 75.0165 1.31634 74.1247 1.31634C73.1942 1.31634 72.3799 1.66529 71.7208 2.32443C71.0617 3.02233 70.7515 3.79778 70.7515 4.72833C70.7515 5.65887 71.0617 6.43432 71.7208 7.09346C72.3799 7.79137 73.1942 8.10155 74.1247 8.10155ZM72.1473 29H76.0633C76.296 29 76.4898 28.9225 76.6449 28.7674C76.8 28.6123 76.8776 28.3796 76.8776 28.147V10.9707C76.8776 10.7381 76.8 10.5442 76.6449 10.3891C76.4898 10.234 76.296 10.1177 76.0633 10.1177H72.1473C71.9147 10.1177 71.682 10.234 71.5269 10.3891C71.3718 10.5442 71.2943 10.7381 71.2943 10.9707V28.147C71.2943 28.3796 71.3718 28.6123 71.5269 28.7674C71.682 28.9225 71.9147 29 72.1473 29ZM84.6503 37.9953C86.5889 37.9953 88.2173 37.4912 89.4581 36.4443C90.6988 35.3975 91.6293 33.9629 92.2109 32.1794L98.6472 11.436C98.7635 11.0483 98.7635 10.7381 98.6472 10.5055C98.5309 10.2728 98.2982 10.1177 97.9105 10.1177H93.5292C93.219 10.1177 92.9476 10.234 92.7925 10.3891C92.6374 10.583 92.5211 10.7769 92.4823 11.0095L88.9928 23.882L85.2318 11.0095C85.1543 10.7769 85.0767 10.583 84.9217 10.3891C84.7666 10.234 84.5727 10.1177 84.3401 10.1177H79.8037C79.2996 10.1177 78.9894 10.2728 78.9119 10.5442C78.7956 10.8156 78.7956 11.1258 78.9119 11.436L84.4564 28.1858C84.5339 28.4184 84.6503 28.6123 84.8053 28.7674C84.9604 28.9225 85.1931 29 85.5032 29H87.4807L86.6277 31.4039C86.395 31.9855 86.0848 32.412 85.6971 32.7222C85.2706 33.0324 84.8053 33.1874 84.2625 33.1874C83.7973 33.1874 83.3708 33.1099 82.983 32.916C82.5953 32.7609 82.2463 32.5283 81.9362 32.2957C81.6648 32.1406 81.3546 32.0243 81.0444 32.0243C80.7342 32.0243 80.4628 32.1794 80.2302 32.5283L78.8344 34.5445C78.4466 35.1648 78.4466 35.6301 78.9119 36.0178C79.571 36.6382 80.3853 37.1423 81.3933 37.4912C82.4014 37.8402 83.4871 37.9953 84.6503 37.9953ZM104.879 19.5782C104.879 18.9191 104.995 18.2988 105.228 17.7172C105.46 17.1356 105.77 16.6315 106.197 16.205C106.585 15.7785 107.089 15.4296 107.67 15.1582C108.213 14.9255 108.833 14.7704 109.493 14.7704C110.152 14.7704 110.772 14.9255 111.315 15.1582C111.858 15.4296 112.362 15.7785 112.788 16.205C113.176 16.6315 113.525 17.1356 113.758 17.7172C113.99 18.2988 114.107 18.9191 114.107 19.5782C114.107 20.2374 113.99 20.8577 113.758 21.4393C113.525 22.0597 113.176 22.5637 112.788 22.9902C112.362 23.4167 111.858 23.7657 111.315 23.9983C110.772 24.2697 110.152 24.3861 109.493 24.3861C108.833 24.3861 108.213 24.2697 107.67 23.9983C107.089 23.7657 106.585 23.4167 106.197 22.9902C105.77 22.5637 105.46 22.0597 105.228 21.4393C104.995 20.8577 104.879 20.2374 104.879 19.5782ZM99.2179 19.5395C99.2179 21.0904 99.4505 22.4474 99.9933 23.6881C100.536 24.9289 101.234 25.9757 102.087 26.8287C102.94 27.7205 103.948 28.3796 105.111 28.8449C106.236 29.3102 107.399 29.5428 108.64 29.5428C109.88 29.5428 111.005 29.3102 111.974 28.8449C112.943 28.3796 113.641 27.7593 114.107 26.9838V28.1858C114.107 28.4184 114.184 28.6123 114.339 28.7674C114.494 28.9225 114.688 29 114.921 29H118.837C119.069 29 119.263 28.9225 119.418 28.7674C119.573 28.6123 119.651 28.4184 119.651 28.1858V10.9707C119.651 10.7381 119.573 10.5442 119.418 10.3891C119.263 10.234 119.069 10.1177 118.837 10.1177H114.921C114.688 10.1177 114.494 10.234 114.339 10.3891C114.184 10.5442 114.107 10.7381 114.107 10.9707V12.1339C113.641 11.3972 112.943 10.7769 112.013 10.3116C111.044 9.84632 109.919 9.57491 108.678 9.57491C107.438 9.57491 106.274 9.80754 105.15 10.2728C103.987 10.7381 102.979 11.436 102.126 12.289C101.234 13.142 100.536 14.1889 99.9933 15.4296C99.4505 16.6703 99.2179 18.0273 99.2179 19.5395Z" fill="white"/>
<path fill-rule="evenodd" clip-rule="evenodd" d="M0.000282142 21.9765C0.875485 21.5824 7.39832 16.8983 8.80987 16.0445C9.27794 16.2366 10.5005 17.1367 11.0402 17.5091C11.8042 18.0361 12.4698 18.555 13.1924 19.0293L17.5681 21.9833L17.5879 16.828L11.0168 12.3039C10.3498 11.8426 9.43453 11.1338 8.74272 10.8071C8.1206 11.1206 7.58933 11.5742 7.02758 11.9568C6.57249 12.2666 5.73029 12.9051 5.21087 13.1133L5.27633 9.34815C9.0796 9.34364 13.1594 9.12921 16.141 10.8593C21.7977 14.142 21.8894 23.0292 16.2206 26.365C13.3213 28.0711 9.0669 27.6081 5.291 27.5889L5.27238 22.2214C4.24341 22.6353 1.13731 24.9379 0.00112857 25.433L0.000846425 32.2383C3.28695 32.2284 6.56487 32.2369 9.84138 32.2372C13.1994 32.2374 15.4975 32.0727 18.2492 30.7212C28.454 25.7087 28.2824 11.094 18.4219 6.24234C15.6735 4.89003 13.3794 4.69874 9.9706 4.69931C6.64725 4.69959 3.32391 4.70184 0.000564283 4.69902L0 21.9774L0.000282142 21.9765Z" fill="white"/>
<path fill-rule="evenodd" clip-rule="evenodd" d="M0.137403 21.9066C1.40563 21.2027 7.45644 16.8639 8.80987 16.0451C9.27794 16.2373 10.5005 17.1373 11.0402 17.5097C11.8042 18.0368 12.4698 18.5556 13.1924 19.0299L17.5681 21.9839L17.5879 16.8286L11.0168 12.3045L8.77601 10.7646C5.84061 12.5785 2.93596 14.4651 0 16.2793V21.9038L0.137403 21.9069V21.9066Z" fill="#EC712C"/>
</svg>
