<svg width="122" height="40" viewBox="0 0 122 40" fill="none" xmlns="http://www.w3.org/2000/svg">
<path d="M35.1021 20.6499V10.918C35.1021 10.7241 34.9858 10.5302 34.8307 10.3752C34.6756 10.2201 34.4817 10.1425 34.2491 10.1425H30.3718C30.1392 10.1425 29.9453 10.2201 29.7902 10.3752C29.5964 10.5302 29.5188 10.7241 29.5188 10.918V21.5804C29.5188 22.7824 29.6739 23.868 30.0229 24.8373C30.3718 25.8454 30.8759 26.6597 31.535 27.3576C32.1941 28.0555 33.0084 28.5983 33.9777 28.986C34.9082 29.3737 35.9939 29.5676 37.1958 29.5676C38.6692 29.5676 39.8324 29.335 40.6854 28.8697C41.5383 28.4044 42.2363 27.7841 42.8566 27.0474V28.2493C42.8566 28.482 42.9342 28.6758 43.0893 28.8309C43.2443 28.986 43.4382 29.0248 43.6708 29.0248H47.5869C47.8195 29.0248 48.0522 28.9472 48.2072 28.7922C48.3623 28.6371 48.4399 28.4432 48.4399 28.2106V10.9955C48.4399 10.7629 48.3623 10.569 48.2072 10.4139C48.0522 10.2588 47.8195 10.1425 47.5869 10.1425H43.6708C43.4382 10.1425 43.2443 10.2201 43.0893 10.3752C42.9342 10.5302 42.8566 10.7241 42.8566 10.918V20.7274C42.8566 21.9682 42.5077 22.9375 41.8485 23.7129C41.1506 24.4884 40.1813 24.8373 38.9406 24.8373C37.6223 24.8373 36.653 24.4496 36.0326 23.6742C35.4123 22.8987 35.1021 21.8906 35.1021 20.6499ZM57.3706 28.2106V21.2315H58.844L63.5355 28.3269C63.8069 28.7922 64.1946 29.0248 64.6986 29.0248H69.0799C69.5064 29.0248 69.7779 28.9085 69.9329 28.5983C70.0493 28.2881 70.0105 27.9779 69.8166 27.629L63.5355 18.5174L68.9249 11.4996C69.1575 11.1894 69.1963 10.8792 69.1187 10.569C69.0024 10.2976 68.731 10.1425 68.3433 10.1425H64.1558C63.9232 10.1425 63.7293 10.2201 63.5355 10.2976C63.3416 10.3752 63.1865 10.569 63.0314 10.8017L58.7277 16.7339H57.3706V2.69817C57.3706 2.46553 57.2931 2.27167 57.138 2.11658C56.9829 1.96149 56.789 1.88394 56.5564 1.88394H52.6403C52.4077 1.88394 52.1751 1.96149 52.02 2.11658C51.8649 2.27167 51.7874 2.46553 51.7874 2.69817V28.2106C51.7874 28.4432 51.8649 28.6371 52.02 28.7922C52.1751 28.9472 52.4077 29.0248 52.6403 29.0248H56.5564C56.789 29.0248 56.9829 28.9472 57.138 28.7922C57.2931 28.6371 57.3706 28.4432 57.3706 28.2106ZM74.3448 8.12634C75.2366 8.12634 76.0121 7.81616 76.6712 7.11825C77.3303 6.45912 77.6793 5.68366 77.6793 4.75312C77.6793 3.82258 77.3303 3.04712 76.6712 2.34922C76.0121 1.69008 75.2366 1.34113 74.3448 1.34113C73.4143 1.34113 72.6001 1.69008 71.9409 2.34922C71.2818 3.04712 70.9716 3.82258 70.9716 4.75312C70.9716 5.68366 71.2818 6.45912 71.9409 7.11825C72.6001 7.81616 73.4143 8.12634 74.3448 8.12634ZM72.3674 29.0248H76.2835C76.5161 29.0248 76.71 28.9472 76.8651 28.7922C77.0202 28.6371 77.0977 28.4044 77.0977 28.1718V10.9955C77.0977 10.7629 77.0202 10.569 76.8651 10.4139C76.71 10.2588 76.5161 10.1425 76.2835 10.1425H72.3674C72.1348 10.1425 71.9022 10.2588 71.7471 10.4139C71.592 10.569 71.5144 10.7629 71.5144 10.9955V28.1718C71.5144 28.4044 71.592 28.6371 71.7471 28.7922C71.9022 28.9472 72.1348 29.0248 72.3674 29.0248ZM84.8704 38.02C86.809 38.02 88.4375 37.516 89.6782 36.4691C90.9189 35.4223 91.8495 33.9877 92.4311 32.2041L98.8673 11.4608C98.9836 11.0731 98.9836 10.7629 98.8673 10.5302C98.751 10.2976 98.5184 10.1425 98.1306 10.1425H93.7493C93.4392 10.1425 93.1677 10.2588 93.0127 10.4139C92.8576 10.6078 92.7412 10.8017 92.7025 11.0343L89.2129 23.9068L85.452 11.0343C85.3744 10.8017 85.2969 10.6078 85.1418 10.4139C84.9867 10.2588 84.7929 10.1425 84.5602 10.1425H80.0238C79.5198 10.1425 79.2096 10.2976 79.1321 10.569C79.0157 10.8404 79.0157 11.1506 79.1321 11.4608L84.6765 28.2106C84.7541 28.4432 84.8704 28.6371 85.0255 28.7922C85.1806 28.9472 85.4132 29.0248 85.7234 29.0248H87.7008L86.8478 31.4287C86.6152 32.0103 86.305 32.4368 85.9173 32.747C85.4908 33.0571 85.0255 33.2122 84.4827 33.2122C84.0174 33.2122 83.5909 33.1347 83.2032 32.9408C82.8155 32.7857 82.4665 32.5531 82.1563 32.3205C81.8849 32.1654 81.5747 32.0491 81.2645 32.0491C80.9544 32.0491 80.683 32.2041 80.4503 32.5531L79.0545 34.5693C78.6668 35.1896 78.6668 35.6549 79.1321 36.0426C79.7912 36.663 80.6054 37.167 81.6135 37.516C82.6216 37.865 83.7072 38.02 84.8704 38.02ZM105.099 19.603C105.099 18.9439 105.215 18.3235 105.448 17.742C105.68 17.1604 105.991 16.6563 106.417 16.2298C106.805 15.8033 107.309 15.4544 107.89 15.183C108.433 14.9503 109.054 14.7952 109.713 14.7952C110.372 14.7952 110.992 14.9503 111.535 15.183C112.078 15.4544 112.582 15.8033 113.008 16.2298C113.396 16.6563 113.745 17.1604 113.978 17.742C114.21 18.3235 114.327 18.9439 114.327 19.603C114.327 20.2622 114.21 20.8825 113.978 21.4641C113.745 22.0845 113.396 22.5885 113.008 23.015C112.582 23.4415 112.078 23.7905 111.535 24.0231C110.992 24.2945 110.372 24.4108 109.713 24.4108C109.054 24.4108 108.433 24.2945 107.89 24.0231C107.309 23.7905 106.805 23.4415 106.417 23.015C105.991 22.5885 105.68 22.0845 105.448 21.4641C105.215 20.8825 105.099 20.2622 105.099 19.603ZM99.438 19.5643C99.438 21.1152 99.6706 22.4722 100.213 23.7129C100.756 24.9537 101.454 26.0005 102.307 26.8535C103.16 27.7453 104.168 28.4044 105.331 28.8697C106.456 29.335 107.619 29.5676 108.86 29.5676C110.1 29.5676 111.225 29.335 112.194 28.8697C113.164 28.4044 113.861 27.7841 114.327 27.0086V28.2106C114.327 28.4432 114.404 28.6371 114.559 28.7922C114.714 28.9472 114.908 29.0248 115.141 29.0248H119.057C119.29 29.0248 119.483 28.9472 119.639 28.7922C119.794 28.6371 119.871 28.4432 119.871 28.2106V10.9955C119.871 10.7629 119.794 10.569 119.639 10.4139C119.483 10.2588 119.29 10.1425 119.057 10.1425H115.141C114.908 10.1425 114.714 10.2588 114.559 10.4139C114.404 10.569 114.327 10.7629 114.327 10.9955V12.1587C113.861 11.422 113.164 10.8017 112.233 10.3364C111.264 9.87111 110.139 9.5997 108.899 9.5997C107.658 9.5997 106.495 9.83234 105.37 10.2976C104.207 10.7629 103.199 11.4608 102.346 12.3138C101.454 13.1668 100.756 14.2136 100.213 15.4544C99.6706 16.6951 99.438 18.0521 99.438 19.5643Z" fill="#002278"/>
<path fill-rule="evenodd" clip-rule="evenodd" d="M0.220436 22.0013C1.09564 21.6072 7.61847 16.9231 9.03002 16.0693C9.4981 16.2614 10.7206 17.1615 11.2604 17.5339C12.0244 18.0609 12.69 18.5798 13.4125 19.0541L17.7883 22.0081L17.808 16.8528L11.2369 12.3287C10.57 11.8674 9.65468 11.1586 8.96287 10.8319C8.34075 11.1454 7.80948 11.599 7.24774 11.9816C6.79264 12.2914 5.95045 12.9299 5.43103 13.1381L5.49648 9.37294C9.29975 9.36843 13.3795 9.154 16.3612 10.8841C22.0178 14.1668 22.1095 23.054 16.4408 26.3897C13.5415 28.0959 9.28705 27.6329 5.51115 27.6137L5.49253 22.2462C4.46356 22.6601 1.35747 24.9627 0.221282 25.4578L0.221 32.2631C3.5071 32.2532 6.78502 32.2617 10.0615 32.262C13.4196 32.2622 15.7176 32.0975 18.4693 30.746C28.6741 25.7335 28.5026 11.1188 18.642 6.26713C15.8937 4.91483 13.5996 4.72353 10.1908 4.7241C6.86741 4.72438 3.54406 4.72664 0.220718 4.72382L0.220154 22.0022L0.220436 22.0013Z" fill="#002278"/>
<path fill-rule="evenodd" clip-rule="evenodd" d="M0.357557 21.9314C1.62578 21.2275 7.67659 16.8887 9.03002 16.0699C9.4981 16.2621 10.7206 17.1621 11.2604 17.5345C12.0244 18.0616 12.69 18.5804 13.4125 19.0547L17.7883 22.0087L17.808 16.8534L11.2369 12.3293L8.99617 10.7894C6.06077 12.6033 3.15612 14.4899 0.220154 16.3041V21.9286L0.357557 21.9317V21.9314Z" fill="#EC712C"/>
</svg>
