<svg width="26" height="27" viewBox="0 0 26 27" fill="none" xmlns="http://www.w3.org/2000/svg">
<path fill-rule="evenodd" clip-rule="evenodd" d="M0.706323 16.8838C1.53841 16.5091 7.73993 12.0557 9.08195 11.244C9.52697 11.4267 10.6893 12.2824 11.2024 12.6365C11.9288 13.1376 12.5616 13.6309 13.2486 14.0818L17.4088 16.8903L17.4275 11.9889L11.1802 7.68766C10.546 7.24908 9.67584 6.57526 9.01811 6.26463C8.42663 6.56265 7.92153 6.99398 7.38746 7.35772C6.95478 7.65225 6.15408 8.25929 5.66024 8.45725L5.72247 4.87754C9.33839 4.87325 13.2172 4.66939 16.052 6.31426C21.43 9.43527 21.5172 17.8847 16.1276 21.0561C13.3712 22.6782 9.32632 22.238 5.73642 22.2197L5.71872 17.1167C4.74043 17.5102 1.78734 19.6993 0.707128 20.1701L0.706859 26.6401C3.83109 26.6307 6.94754 26.6388 10.0626 26.639C13.2553 26.6393 15.4401 26.4827 18.0563 25.1978C27.7584 20.4322 27.5953 6.53743 18.2205 1.92472C15.6075 0.639033 13.4264 0.457164 10.1855 0.4577C7.02587 0.457968 3.86623 0.460114 0.706591 0.457432L0.706055 16.8846L0.706323 16.8838Z" fill="#002278"/>
<path fill-rule="evenodd" clip-rule="evenodd" d="M0.836689 16.8174C2.04244 16.1482 7.79519 12.0231 9.08195 11.2447C9.52697 11.4273 10.6893 12.283 11.2024 12.6371C11.9288 13.1382 12.5616 13.6315 13.2486 14.0824L17.4088 16.8909L17.4275 11.9896L11.1802 7.68829L9.04976 6.22422C6.25896 7.94876 3.49739 9.7425 0.706055 11.4673V16.8147L0.836689 16.8177V16.8174Z" fill="#EC712C"/>
</svg>
