<svg width="70" height="51" viewBox="0 0 70 51" fill="none" xmlns="http://www.w3.org/2000/svg">
<g clip-path="url(#clip0_491_91)">
<path fill-rule="evenodd" clip-rule="evenodd" d="M8.80378 47.1206C10.4257 42.3786 12.239 37.4737 13.9663 32.8245C14.941 30.2009 15.8654 28.0244 14.4182 25.1904C13.4018 23.1999 11.4743 21.6963 8.77603 21.1441L9.69718 18.7614C9.78287 18.1386 10.0758 17.1076 10.4678 16.7067C11.7963 17.1616 13.5776 18.0981 15.1214 17.9013C17.4775 17.4324 18.8531 14.8907 17.4041 12.5096C16.8447 11.5904 15.9422 11.2018 14.6845 10.762C13.5979 10.3821 12.5747 9.94767 11.5459 9.62234C11.1919 9.38658 9.12367 8.65098 8.5831 8.62174C4.9434 8.42455 4.76511 11.9184 3.32513 15.5644C2.5534 17.5184 1.93791 19.593 1.16903 21.5494C-0.90332 26.822 0.417423 29.5655 2.38558 34.332C2.90257 35.5839 2.3257 36.2467 1.92571 37.4109L0.304896 41.8959C0.212089 42.1542 0.12589 42.4269 0.0908203 42.701V43.1811C0.111252 43.3196 0.151709 43.4563 0.218188 43.5897C0.619402 44.3944 5.02472 45.7389 5.87005 46.0482L8.80378 47.1205V47.1206Z" fill="#F4BDAD"/>
<path fill-rule="evenodd" clip-rule="evenodd" d="M35.5343 22.5824L37.3692 27.8584C38.6298 31.5277 40.0469 35.8727 42.6405 38.5883L46.0827 42.3229C46.4682 42.7907 47.2382 45.287 47.568 46.1287C47.9021 46.9813 48.6947 49.9891 49.4341 50.5038C50.4889 51.2382 53.0232 49.746 55.3944 48.9389C57.202 48.3238 58.8157 47.6568 60.6006 47.0597C60.2507 46.9174 60.4002 47.0131 60.2114 46.6953L57.7997 40.011C56.9187 37.6517 56.1401 35.3157 55.251 32.9249C54.2648 30.2732 53.2933 28.0522 54.7607 25.1866C55.8186 23.1211 57.6461 21.7462 60.3746 21.157C60.2463 20.6148 59.7471 19.0687 59.4786 18.7605C59.1818 19.003 57.2754 19.6418 56.7458 19.8292C55.76 20.1779 56.0214 19.8624 55.6625 20.7813C54.5559 23.6153 52.3715 24.1811 49.2469 23.8065C48.4862 25.8721 43.8862 27.5105 41.2856 24.5856C40.1766 23.3383 39.336 20.3381 38.5886 18.3366C38.3464 17.6882 38.1426 16.8512 37.8779 16.2625L35.5342 22.5824H35.5343Z" fill="#C28678"/>
<path fill-rule="evenodd" clip-rule="evenodd" d="M34.5856 1.82683C34.4663 2.24737 33.9018 3.31712 33.652 4.008C33.3882 4.73785 33.1226 5.48967 32.8661 6.20701C32.3381 7.68355 31.7242 9.22411 31.2666 10.668C30.8999 11.2201 30.7367 12.2778 30.4134 12.7835C30.7809 12.9581 30.6856 12.8577 30.8879 13.3144C30.9492 13.4528 31.0429 13.7687 31.0884 13.9268C31.2233 14.3965 31.3069 14.9029 31.3066 15.4285C31.3057 16.8895 29.3103 22.2207 28.7243 23.3812C27.2432 26.3144 23.0989 27.5288 20.1857 24.2595L19.767 23.8111C17.0503 24.2888 15.4037 23.5375 14.1265 21.9394C12.9236 20.434 14.1951 20.4596 12.3487 19.786C11.8374 19.5995 9.99119 18.9957 9.69752 18.7616L8.77637 21.1444C11.4748 21.6965 13.4022 23.2002 14.4186 25.1906C15.8658 28.0247 14.9414 30.2011 13.9666 32.8248C12.2393 37.474 10.4261 42.3787 8.80412 47.1208C9.42622 47.372 10.1491 47.6182 10.8206 47.8532C11.5865 48.1213 12.2138 48.3469 12.9109 48.5998C14.2894 49.1 15.6082 49.6435 16.9839 50.1132C17.4812 48.1609 18.5924 45.4999 19.3224 43.5411C19.983 41.7683 19.8872 41.8064 20.8727 40.6182L24.0201 37.1291C26.5373 34.4112 27.7146 30.3342 28.9369 26.856L35.9139 7.5116C36.2909 6.43641 36.7012 5.40267 37.0639 4.32224C37.7254 2.35191 37.1661 2.21033 36.6323 0.874756C35.542 0.897942 35.2406 1.39542 34.5857 1.82683H34.5856Z" fill="#EAAD9C"/>
<path fill-rule="evenodd" clip-rule="evenodd" d="M59.4787 18.7606C59.7472 19.0688 60.2464 20.615 60.3747 21.1571C57.6462 21.7463 55.8187 23.1212 54.7609 25.1867C53.2934 28.0523 54.2649 30.2733 55.2511 32.925C56.1402 35.3158 56.9188 37.6518 57.7998 40.011L60.2115 46.6954C60.4003 47.0132 60.2507 46.9175 60.6008 47.0598L66.5304 44.8629C66.1704 44.3839 65.0541 40.9714 64.8425 40.3957C64.4764 39.3991 63.2447 36.7084 63.5539 35.8247C64.7243 32.4799 66.3962 30.2799 65.8709 26.0295C65.616 23.9666 62.1412 14.8778 61.1883 12.2549C60.5839 10.5911 59.5137 9.76696 57.4463 9.73926C56.7704 9.84093 53.9353 10.9319 53.2345 11.2555C50.0498 12.7258 50.7899 17.4467 54.1295 17.9177C55.4244 18.1003 57.5928 17.1355 58.7142 16.7092C59.1018 17.097 59.3986 18.1411 59.479 18.7608L59.4787 18.7606Z" fill="#C28678"/>
<path fill-rule="evenodd" clip-rule="evenodd" d="M16.9834 50.113C17.4783 50.3561 18.7479 50.8515 19.2816 50.7246C20.1389 50.5205 20.3226 49.8121 20.5923 49.0425C20.8584 48.283 22.714 42.9162 23.0537 42.4135C23.4255 41.8632 24.0564 41.4172 24.54 40.7852C25.7565 39.1951 26.9939 38.4847 28.6026 35.7725C30.2655 32.9689 32.355 26.1571 33.7251 22.5801L34.453 20.5898C34.5611 20.373 34.4994 20.4681 34.6136 20.3252C34.6498 19.4981 37.4542 12.0611 37.9394 10.804C38.1805 10.3741 38.2679 9.89431 38.4593 9.40391C39.6107 6.45329 41.6961 2.47333 38.2314 1.00849C37.6845 0.77724 37.2548 0.650433 36.7225 0.830179C36.7015 0.837258 36.6593 0.855212 36.6318 0.874705C37.1656 2.21028 37.7248 2.35186 37.0634 4.32219C36.7007 5.40262 36.2904 6.43636 35.9133 7.51155L28.9364 26.856C27.7141 30.334 26.5368 34.4111 24.0195 37.1291L20.8721 40.6181C19.8866 41.8063 19.9825 41.7681 19.3219 43.541C18.5919 45.4999 17.4807 48.1609 16.9834 50.1131V50.113Z" fill="#C28678"/>
<path fill-rule="evenodd" clip-rule="evenodd" d="M51.1671 9.88619C51.1671 10.5334 51.3202 10.708 51.4367 11.2121C50.9801 10.9035 51.0305 10.6727 50.4766 10.532C49.2698 12.2073 48.3869 13.9425 49.4159 16.6546C50.4699 19.4323 53.0752 19.8145 53.7549 20.1894C52.8981 22.5924 49.2708 22.6516 48.1069 20.271C47.6333 19.3023 45.9428 14.6803 45.7275 13.6604C44.9548 12.977 44.8379 12.5157 43.5454 12.2361C42.8668 12.0894 42.4897 12.1824 41.9451 12.3775C41.6192 12.4942 41.5555 12.5052 41.2896 12.6732L40.8581 13.1163C41.6002 13.5031 42.5653 13.4757 43.2822 14.8207L45.5354 20.9851C46.0224 22.6105 45.24 23.406 44.875 24.1887C42.6144 24.0455 42.2122 22.6076 41.52 20.6741C40.9907 19.1955 40.0988 17.2189 39.7841 15.7006L37.9401 10.804C37.4548 12.0611 34.6504 19.4981 34.6143 20.3252C34.8009 20.6487 34.922 21.0683 35.0733 21.471C35.2002 21.8086 35.2937 22.3257 35.5346 22.5825L37.8784 16.2625C38.143 16.8514 38.3469 17.6883 38.589 18.3367C39.3363 20.3382 40.1769 23.3384 41.286 24.5857C43.8866 27.5106 48.4866 25.8723 49.2473 23.8066C52.372 24.1812 54.5563 23.6154 55.6629 20.7814C56.0218 19.8625 55.7604 20.178 56.7462 19.8292C57.2758 19.6419 59.1823 19.0032 59.479 18.7606C59.3987 18.1411 59.1019 17.0968 58.7143 16.709C57.5929 17.1353 55.4245 18.1001 54.1296 17.9175C50.79 17.4465 50.05 12.7255 53.2346 11.2553C53.9354 10.9317 56.7705 9.84074 57.4463 9.73907C57.4463 9.50279 57.391 9.56814 57.6361 9.56814C57.6095 9.25769 57.2259 7.80034 56.6927 7.61987C55.7735 7.91329 54.8 8.29618 53.8627 8.63238C52.6591 9.0642 52.0781 9.47345 51.1673 9.88609L51.1671 9.88619Z" fill="#9D6C6C"/>
<path fill-rule="evenodd" clip-rule="evenodd" d="M57.6356 9.56816C57.3905 9.56816 57.4458 9.50291 57.4458 9.73909C59.5132 9.76679 60.5834 10.5909 61.1878 12.2547C62.1407 14.8776 65.6155 23.9664 65.8705 26.0294C66.3957 30.2798 64.7238 32.4796 63.5534 35.8245C63.2442 36.7082 64.4759 39.399 64.8421 40.3955C65.0536 40.9714 66.1699 44.3839 66.53 44.8628C66.9896 44.746 67.3668 44.5589 67.7611 44.4183C68.6262 44.11 69.0048 43.7213 69.0905 43.2119V42.6946C69.0269 42.2223 68.814 41.6644 68.5515 40.9997L66.6709 35.8181C66.3745 34.9085 66.8144 34.3004 67.2614 33.1688C67.6214 32.2577 67.949 31.527 68.2673 30.6475C68.8213 29.1161 69.0653 27.8369 69.0905 26.6617V26.2421C69.0389 23.9571 68.169 22.0116 67.1868 19.254C66.5758 17.5384 65.9452 15.7666 65.3342 14.051C65.0278 13.1908 64.6615 12.2985 64.3905 11.467C63.1729 7.73192 60.4283 8.35457 57.6356 9.56816Z" fill="#9D6C6C"/>
<path fill-rule="evenodd" clip-rule="evenodd" d="M29.4081 15.7008C29.3169 16.5074 28.6397 18.1208 28.3431 18.8999C27.5455 20.9943 26.7831 25.1654 23.2836 24.1296C23.0831 24.0703 22.675 23.9043 22.5183 23.8141C22.0455 23.5414 22.2169 23.6797 21.9844 23.3026C21.6451 22.9733 21.2174 22.4022 21.1334 21.6525C20.8595 21.2895 20.9294 21.135 20.9485 20.6225C20.227 21.2859 19.3892 22.5148 17.356 21.9435C16.7902 21.7846 16.5662 21.6706 16.2251 21.2889C15.9009 20.9927 15.6541 20.7493 15.4459 20.2659C15.3794 20.1746 15.3618 20.1664 15.2741 19.976C14.8958 19.1541 15.1384 18.3796 15.1215 17.9017C13.5777 18.0985 11.7963 17.162 10.4679 16.7071C10.0759 17.1081 9.78296 18.139 9.69727 18.7618C9.99093 18.9959 11.8371 19.5997 12.3484 19.7862C14.1949 20.4597 12.9233 20.4342 14.1263 21.9395C15.4033 23.5377 17.05 24.289 19.7667 23.8113L20.1854 24.2596C23.0986 27.529 27.2429 26.3146 28.7241 23.3814C29.3102 22.2209 31.3056 16.8896 31.3063 15.4287C31.3066 14.9031 31.223 14.3968 31.0882 13.927C31.0427 13.7689 30.9489 13.4529 30.8876 13.3145C30.6853 12.8579 30.7807 12.9583 30.4131 12.7837C30.0525 13.7365 29.7336 14.727 29.4081 15.7008Z" fill="#F4BDAD"/>
<path fill-rule="evenodd" clip-rule="evenodd" d="M45.7275 13.6603C45.9428 14.6801 47.6334 19.3022 48.107 20.2709C49.271 22.6515 52.8983 22.5923 53.755 20.1892C53.0752 19.8143 50.4699 19.4323 49.4159 16.6544C48.3868 13.9423 49.2698 12.2073 50.4766 10.5319C49.608 9.69461 47.2607 9.70774 46.1344 11.7092C45.6117 12.6382 45.8894 12.5045 45.7275 13.6603V13.6603Z" fill="#C28678"/>
<path fill-rule="evenodd" clip-rule="evenodd" d="M39.7842 15.7006C40.0989 17.2189 40.9908 19.1955 41.5201 20.674C42.2123 22.6076 42.6145 24.0454 44.8751 24.1886C45.2401 23.4059 46.0225 22.6103 45.5355 20.985L43.2823 14.8206C42.5653 13.4756 41.6003 13.503 40.8582 13.1162C40.3296 13.4082 40.7258 13.0932 40.4006 13.5438C40.2767 13.7155 40.1709 13.9224 40.0699 14.1572C39.7895 14.8091 39.9197 14.9457 39.7842 15.7006V15.7006Z" fill="#C28678"/>
<path fill-rule="evenodd" clip-rule="evenodd" d="M23.3556 13.7965C22.9401 16.1873 20.7999 19.2061 21.1339 21.6525C21.2178 22.4022 21.6456 22.9732 21.9848 23.3026C24.6307 22.7456 24.669 21.0413 25.5963 18.583C25.9529 17.6376 26.416 16.4778 26.7072 15.4877C27.2653 13.5902 26.3422 13.2078 26.0201 12.1643C25.3692 12.2928 24.9672 12.4022 24.4851 12.7096C24.2333 12.8702 24.1337 12.9779 23.9103 13.2148C23.7963 13.3357 23.7573 13.3858 23.649 13.5004C23.621 13.5299 23.5323 13.6219 23.507 13.6478L23.3558 13.7965H23.3556Z" fill="#F4BDAD"/>
<path fill-rule="evenodd" clip-rule="evenodd" d="M11.5459 9.62249C12.5747 9.94782 13.5979 10.3822 14.6845 10.7621C15.9422 11.2019 16.8447 11.5905 17.4041 12.5097C18.8531 14.8908 17.4775 17.4326 15.1214 17.9015C15.1383 18.3793 14.8957 19.1538 15.274 19.9757C15.3617 20.1662 15.3792 20.1744 15.4458 20.2657C15.9283 19.8235 18.5676 19.6383 19.7681 16.658C20.81 14.0711 19.8962 12.1093 18.7096 10.5319C18.1478 10.6724 18.2059 10.9006 17.7451 11.212C17.8613 10.7084 18.0147 10.5337 18.0147 9.8877C17.1003 9.45003 16.4813 9.05658 15.3162 8.6345C14.3638 8.28948 13.407 7.91019 12.4893 7.61133C12.4634 7.62118 12.4252 7.61748 12.4167 7.65216L11.5459 9.62239V9.62249Z" fill="#EAAD9C"/>
<path fill-rule="evenodd" clip-rule="evenodd" d="M21.9845 23.3024C22.2171 23.6794 22.0458 23.5412 22.5184 23.8138C22.6751 23.9042 23.0832 24.0701 23.2838 24.1294C26.7832 25.1652 27.5457 20.994 28.3432 18.8996C28.6399 18.1206 29.3171 16.5072 29.4082 15.7005C29.2589 14.9858 29.4371 14.8628 29.1633 14.2413C28.9938 13.8564 28.7676 13.4151 28.499 13.1438C27.9802 12.6198 27.0208 12.1641 26.0197 12.1641C26.3419 13.2076 27.2649 13.5899 26.7068 15.4874C26.4156 16.4776 25.9525 17.6374 25.5959 18.5828C24.6687 21.0411 24.6303 22.7454 21.9844 23.3024H21.9845Z" fill="#EAAD9C"/>
<path fill-rule="evenodd" clip-rule="evenodd" d="M16.2246 21.2887C16.5657 21.6704 16.7897 21.7844 17.3555 21.9433C19.3888 22.5145 20.2265 21.2857 20.948 20.6223C20.9289 21.1348 20.8591 21.2893 21.1329 21.6523C20.799 19.2059 22.9392 16.1872 23.3547 13.7963C23.6663 11.6122 22.4431 10.3363 20.7094 10.0815L20.8209 10.4122C20.8665 10.488 21.004 10.6619 21.0501 10.7288C22.2861 12.5253 21.1335 14.4237 20.3522 16.5604C19.5097 18.8646 19.1365 21.3955 16.2246 21.2886V21.2887Z" fill="#EAAD9C"/>
<path fill-rule="evenodd" clip-rule="evenodd" d="M18.7101 10.532C19.8966 12.1094 20.8106 14.0713 19.7686 16.6582C18.5682 19.6384 15.9289 19.8236 15.4463 20.2658C15.6545 20.7492 15.9013 20.9926 16.2255 21.2888C19.1374 21.3956 19.5107 18.8648 20.3532 16.5606C21.1344 14.4239 22.2871 12.5256 21.051 10.729C21.0049 10.6621 20.8674 10.4882 20.8219 10.4124L20.7104 10.0818C20.2755 9.8898 19.4233 10.0976 19.0884 10.256L18.71 10.532H18.7101Z" fill="#F4BDAD"/>
<path fill-rule="evenodd" clip-rule="evenodd" d="M30.3282 7.94766C30.2982 8.36143 30.933 10.2997 31.2662 10.6681C31.7239 9.22404 32.3378 7.68358 32.8657 6.20704C33.1221 5.4897 33.3876 4.73789 33.6516 4.00803C33.9015 3.31716 34.466 2.2474 34.5852 1.82687C34.0325 1.44337 34.0057 1.14779 33.1082 0.976562C32.3874 1.70704 32.0344 3.2122 31.5993 4.38045C31.178 5.51207 30.6293 6.84949 30.3282 7.94766Z" fill="#9D6C6C"/>
<path fill-rule="evenodd" clip-rule="evenodd" d="M30.3281 7.94755C30.6292 6.84948 31.1779 5.51195 31.5993 4.38033C32.0343 3.21209 32.3874 1.70692 33.1082 0.976447C31.4685 0.190778 27.9023 1.77761 29.3534 5.61639C29.5714 6.19318 29.9714 7.56425 30.3281 7.94755Z" fill="#C28678"/>
<path fill-rule="evenodd" clip-rule="evenodd" d="M12.4894 7.6113C13.4071 7.91026 14.3639 8.28945 15.3163 8.63448C16.4814 9.05655 17.1003 9.45011 18.0148 9.88767C18.1671 9.60461 18.1082 9.87075 18.1095 9.47278C18.1096 9.46262 18.0182 8.92564 18.0144 8.90861C17.7587 7.78654 17.3182 7.15045 16.2227 6.62773C14.7634 5.93142 13.0488 6.47927 12.4893 7.6112L12.4894 7.6113Z" fill="#F4BDAD"/>
<path fill-rule="evenodd" clip-rule="evenodd" d="M51.167 9.88619C52.0778 9.47356 52.6589 9.06431 53.8624 8.63249C54.7996 8.29628 55.7731 7.9134 56.6925 7.61998C56.3934 6.99682 55.8812 6.68001 55.203 6.45861C54.3309 6.17391 53.689 6.27979 52.9591 6.62799C51.652 7.25167 50.7145 9.05107 51.1672 9.88619H51.167Z" fill="#C28678"/>
</g>
<defs>
<clipPath id="clip0_491_91">
<rect width="69" height="50" fill="white" transform="translate(0.0908203 0.745117)"/>
</clipPath>
</defs>
</svg>
