<svg width="65" height="53" viewBox="0 0 65 53" fill="none" xmlns="http://www.w3.org/2000/svg">
<g clip-path="url(#clip0_493_204)">
<path fill-rule="evenodd" clip-rule="evenodd" d="M41.7546 42.5047C41.7546 40.6469 43.6797 40.6449 43.6797 42.5047V43.4903C43.6797 45.4566 41.7546 45.4055 41.7546 43.4903V42.5047ZM33.7737 37.7042C34.5696 37.3888 35.3707 38.2854 34.7825 39.1728C34.5871 39.4674 33.3878 40.6303 33.059 40.7427C32.0458 41.089 31.3427 40.0935 31.99 39.2624C32.2664 38.9076 33.3215 37.8835 33.7737 37.7044V37.7042ZM44.1987 29.0054C46.5284 29.7124 51.4823 28.1867 51.6023 29.9938C51.6952 31.3931 49.5853 31.0181 48.4986 31.018C47.1576 31.0179 45.7993 31.0393 44.4605 31.0077C43.865 31.4718 43.5128 32.2106 42.2365 31.8981C41.487 31.7144 40.8027 31.0522 40.7876 30.1064C40.7527 27.9215 43.9815 27.6802 44.1987 29.0054ZM28.9841 30.9961C26.9926 30.9961 27.2177 29.099 28.8407 29.099H30.132C31.7508 29.099 31.9984 30.9961 29.9886 30.9961H28.9841ZM32.3599 19.324C33.3584 18.9515 36.2565 21.8219 34.3365 22.4074C33.4373 22.6816 30.5065 20.0154 32.3599 19.324ZM42.3418 15.3049C44.0752 14.419 44.0734 18.47 43.1388 18.8365C42.0163 19.2768 41.7546 18.331 41.7477 17.4503C41.7404 16.4888 41.5529 15.708 42.3418 15.3049ZM39.9242 47.368C41.9957 47.736 45.936 45.991 47.3386 45.1694C49.1007 44.137 51.5501 42.1911 52.3227 40.8111C51.9816 40.3766 51.5297 39.9825 51.1469 39.6252C49.4597 38.05 51.1945 37.1634 52.2165 38.0063C52.71 38.4134 52.9424 38.8516 53.3893 39.0424C54.4184 38.8325 56.2587 32.9259 56.0282 31.0041C55.0443 30.9667 54.0031 31.0885 54.0657 29.9799C54.1215 28.9929 55.0834 29.1215 56.0357 29.0922C56.2131 27.234 54.4574 21.3679 53.4016 21.0475L52.7245 21.5896C52.5155 21.7994 52.3044 22.0459 52.0622 22.2112C51.3429 22.702 50.885 22.4464 50.4908 21.8075C50.3819 20.4669 51.8733 20.2434 52.0864 19.4244C52.2678 18.9294 52.1051 18.8701 51.2455 17.9859L49.434 16.3797C49.2198 16.2134 49.0201 16.0881 48.7761 15.9049C46.8311 14.4447 43.0486 12.7727 40.459 12.7019C35.0689 13.6819 32.391 15.3573 29.6334 18.2238C27.1714 20.7832 25.0062 24.7061 24.8878 29.692C24.7681 34.7384 26.814 38.7594 29.2595 41.5273C31.7724 44.3715 34.726 46.224 39.9244 47.3679L39.9242 47.368Z" fill="#EAEAEA"/>
<path fill-rule="evenodd" clip-rule="evenodd" d="M40.3201 51.657C42.912 51.657 45.1986 51.0452 47.5979 49.9147C50.4472 48.5723 50.7713 48.211 53.0823 46.437C55.8373 44.322 59.6035 38.4689 59.8874 35.2978C59.8592 35.3263 59.8278 35.3679 59.8116 35.3911C59.7957 35.4138 59.7583 35.4563 59.7398 35.4847L59.1964 36.806C57.0971 41.794 52.6245 45.6206 47.2087 47.0144C44.2136 47.785 42.87 47.4432 39.9247 47.368C34.7263 46.2241 31.7728 44.3716 29.2598 41.5275C26.8143 38.7596 24.7684 34.7387 24.8881 29.6922C25.0065 24.7061 27.1717 20.7832 29.6338 18.224C32.3913 15.3573 35.0694 13.6821 40.4594 12.7021C46.739 12.3052 51.5076 13.8555 55.4012 17.7096C56.0053 18.3076 56.6056 19.0565 57.2153 19.8693C57.8155 20.6694 58.2643 21.4434 58.7729 22.4257C59.0408 22.943 59.174 23.291 59.3753 23.8062C59.4767 24.0658 59.5348 24.2371 59.635 24.5244C59.6936 24.6926 59.7234 24.7916 59.7997 24.9492C59.8897 25.1352 59.9162 25.1629 59.989 25.2574C59.7579 23.2731 58.2692 20.2065 57.3614 18.7458C56.2326 16.9295 54.6216 14.9792 53.2707 13.889C52.3772 13.1679 51.7846 12.629 50.7012 11.901C45.9313 8.69605 42.5248 8.94908 40.7861 8.29053L40.32 8.30983C37.9791 8.23843 34.3966 9.65677 32.2836 10.6833C29.9674 11.8087 28.1395 13.4333 26.3652 15.154C24.8457 16.6278 23.0356 19.3534 22.2183 21.363C21.2164 23.8266 20.369 26.4729 20.375 29.9734C20.3887 37.9098 24.4214 44.4354 30.4475 48.3902C32.097 49.4727 33.9746 50.3058 35.8895 50.9349C36.6622 51.1887 39.4628 51.9818 40.32 51.6569L40.3201 51.657Z" fill="#EAAD9C"/>
<path fill-rule="evenodd" clip-rule="evenodd" d="M40.7866 8.29068C42.5252 8.94923 45.9317 8.69621 50.7016 11.9011C51.7851 12.6292 52.3777 13.168 53.2712 13.8892C54.6219 14.9794 56.233 16.9296 57.3618 18.7459C58.2697 20.2067 59.7585 23.2733 59.9894 25.2576C59.9406 25.9335 60.3046 26.9485 60.4033 27.7326C60.9755 32.2784 59.8 34.2957 59.8876 35.2978C59.6037 38.469 55.8375 44.3222 53.0825 46.4371C50.7716 48.2111 50.4474 48.5723 47.5981 49.9148C45.1987 51.0453 42.9122 51.657 40.3203 51.657C40.5567 52.211 40.1994 51.7801 40.7595 51.9227L42.7597 52.088C43.3018 52.088 43.4511 51.9823 43.917 51.9474C48.4518 51.6065 50.0434 50.9746 53.7145 49.171C54.9318 48.5729 55.9637 47.7081 57.0283 46.9316C58.9588 45.5238 60.8627 43.0406 62.1399 40.9654L63.8706 37.1725C64.6197 34.9657 64.9517 33.0244 65.0002 30.901V29.7579C64.9843 29.0163 64.939 28.2452 64.8691 27.4273C64.6921 25.3519 64.3469 24.6041 63.835 22.951C62.8981 19.9249 61.911 18.8682 60.4367 16.7114C58.6807 14.1425 54.7856 11.2543 51.86 10.062C49.8684 9.25033 47.4396 8.26404 45.1989 8.30584C43.5803 8.23385 42.435 8.11876 40.7864 8.2908L40.7866 8.29068Z" fill="#C28778"/>
<path fill-rule="evenodd" clip-rule="evenodd" d="M40.4596 12.7019C43.0492 12.7727 46.8317 14.4447 48.7767 15.9049C49.0207 16.0881 49.2204 16.2132 49.4345 16.3797L51.2461 17.9859C52.1057 18.8701 52.2685 18.9294 52.087 19.4244L52.5167 19.2515C53.4676 19.2813 53.8851 19.7126 53.6109 20.7162C53.537 20.8199 53.483 20.9494 53.4021 21.0475C54.4581 21.3679 56.2137 27.234 56.0362 29.0922C56.9631 29.099 57.8028 29.0402 57.8573 29.9801C57.9178 31.0245 56.9937 31.0128 56.0288 31.0042C56.2594 32.9259 54.4191 38.8325 53.3898 39.0426C53.3944 39.0487 53.5934 39.3865 53.5945 39.388C53.9458 40.347 53.4626 40.8341 52.5435 40.8227L52.3233 40.8111C51.5506 42.1911 49.1014 44.137 47.3392 45.1694C45.9367 45.9911 41.9963 47.736 39.9248 47.368C42.8702 47.4432 44.2138 47.785 47.2088 47.0143C52.6246 45.6206 57.0973 41.794 59.1965 36.8059L59.7399 35.4847C59.7583 35.4563 59.7958 35.4138 59.8117 35.391C59.8279 35.3678 59.8593 35.3263 59.8875 35.2977C59.7998 34.2956 60.9754 32.2784 60.4032 27.7326C60.3045 26.9484 59.9405 25.9334 59.9894 25.2575C59.9167 25.163 59.8902 25.1353 59.8 24.9493C59.7238 24.7917 59.694 24.6927 59.6353 24.5245C59.535 24.2371 59.477 24.0658 59.3757 23.8062C59.1744 23.2911 59.0412 22.9431 58.7733 22.4258C58.2647 21.4435 57.8158 20.6695 57.2156 19.8694C56.6059 19.0565 56.0056 18.3076 55.4015 17.7097C51.5079 13.8556 46.7394 12.3053 40.4597 12.7021L40.4596 12.7019Z" fill="#E2E2E2"/>
<path fill-rule="evenodd" clip-rule="evenodd" d="M0 29.9737C0 30.6314 0.075657 31.2408 1.43495 31.2408H16.6447C18.3639 31.2408 18.3104 29.1289 16.7881 29.1289H1.14789C0.623597 29.1289 0 29.5175 0 29.9737H0Z" fill="#EAAD9C"/>
<path fill-rule="evenodd" clip-rule="evenodd" d="M40.32 4.73942L44.9124 4.76334L44.5551 4.77032C44.9346 3.83459 44.8048 3.32227 44.809 2.23652C44.8103 1.89635 44.846 1.25983 44.8073 0.953283C44.7392 0.413844 44.7168 0.385546 44.1942 0.405674C43.2852 0.0611245 37.9117 0.202496 37.0198 0.406384C36.8363 1.17919 36.8795 1.7139 36.8759 2.65945C36.8707 3.99858 36.7314 3.9279 37.3068 4.77104L40.32 4.73942Z" fill="#EAAD9C"/>
<path fill-rule="evenodd" clip-rule="evenodd" d="M4.16113 23.3564C4.16113 24.0137 4.49574 24.342 5.16555 24.342H16.9316C18.267 24.342 18.3297 22.3708 16.7881 22.3708H5.16555C4.49574 22.3708 4.16113 22.6992 4.16113 23.3564Z" fill="#EAAD9C"/>
<path fill-rule="evenodd" clip-rule="evenodd" d="M4.16113 37.0134C4.16113 37.6152 4.73224 37.999 5.02208 37.999H17.0751C17.6593 37.999 18.3421 37.0234 17.6531 36.3054C17.4534 36.0973 17.3416 36.0278 16.9316 36.0278H5.16555C4.49574 36.0278 4.16113 36.3562 4.16113 37.0134Z" fill="#EAAD9C"/>
<path fill-rule="evenodd" clip-rule="evenodd" d="M44.9125 4.76349L45.1987 4.78539C46.9675 4.71743 48.2174 5.09004 48.4531 4.30373C48.5787 3.88447 48.4989 1.19852 48.4989 0.547314C47.4764 -0.124498 47.1733 0.149721 45.337 0.114674C43.9771 0.0886252 44.3763 0.13646 44.1943 0.405824C44.7169 0.385696 44.7394 0.413994 44.8074 0.953433C44.8462 1.25998 44.8103 1.89662 44.8091 2.23667C44.8049 3.32242 44.9349 3.83463 44.5552 4.77047L44.9125 4.76349Z" fill="#C28778"/>
<path fill-rule="evenodd" clip-rule="evenodd" d="M44.4611 31.0077C45.7998 31.0392 47.1582 31.0178 48.4991 31.018C49.5858 31.0181 51.6958 31.3931 51.6029 29.9938C51.4829 28.1867 46.529 29.7123 44.1992 29.0054C44.8659 29.7276 44.6884 30.1065 44.4609 31.0078L44.4611 31.0077Z" fill="#BFBFBF"/>
<path fill-rule="evenodd" clip-rule="evenodd" d="M44.4612 31.0078C44.6885 30.1065 44.866 29.7276 44.1994 29.0054C43.9823 27.6802 40.7535 27.9215 40.7884 30.1064C40.8034 31.0522 41.4877 31.7144 42.2373 31.8981C43.5136 32.2106 43.8658 31.4718 44.4613 31.0077L44.4612 31.0078Z" fill="#9C9C9C"/>
<path fill-rule="evenodd" clip-rule="evenodd" d="M40.3203 6.8441C41.5139 6.8441 44.1863 6.70273 45.1989 6.93752V4.78532L44.9127 4.76342L40.3203 4.7395V6.84422V6.8441Z" fill="#ACACAC"/>
<path fill-rule="evenodd" clip-rule="evenodd" d="M40.3203 8.31001L40.7864 8.29072C42.435 8.11868 43.5802 8.23376 45.1989 8.30575V6.93762C44.1863 6.70283 41.5139 6.8442 40.3203 6.8442V8.31001Z" fill="#BEBEBE"/>
<path fill-rule="evenodd" clip-rule="evenodd" d="M33.7744 37.7041C33.3222 37.8833 32.2672 38.9074 31.9908 39.2621C31.3434 40.0932 32.0464 41.0888 33.0597 40.7424C33.3884 40.63 34.5878 39.4671 34.7832 39.1725C35.3714 38.285 34.5703 37.3886 33.7744 37.7039V37.7041Z" fill="#C0C0C0"/>
<path fill-rule="evenodd" clip-rule="evenodd" d="M42.3422 15.3048C41.5533 15.7079 41.7409 16.4887 41.7482 17.4502C41.755 18.3309 42.0168 19.2767 43.1392 18.8365C44.0739 18.4699 44.0758 14.4189 42.3422 15.3048Z" fill="#BFBFBF"/>
<path fill-rule="evenodd" clip-rule="evenodd" d="M32.3604 19.324C30.507 20.0153 33.4377 22.6816 34.337 22.4074C36.257 21.8219 33.3589 18.9515 32.3604 19.324Z" fill="#C0C0C0"/>
<path fill-rule="evenodd" clip-rule="evenodd" d="M28.985 30.9959H29.9894C31.9992 30.9959 31.7516 29.0989 30.1329 29.0989H28.8415C27.2186 29.0989 26.9934 30.9959 28.985 30.9959Z" fill="#C0C0C0"/>
<path fill-rule="evenodd" clip-rule="evenodd" d="M41.7549 42.5047V43.4903C41.7549 45.4055 43.68 45.4566 43.68 43.4903V42.5047C43.68 40.6449 41.7549 40.6469 41.7549 42.5047Z" fill="#BFBFBF"/>
<path fill-rule="evenodd" clip-rule="evenodd" d="M52.0867 19.4244C51.8736 20.2434 50.3821 20.467 50.491 21.8075C50.8854 22.4464 51.3432 22.7021 52.0625 22.2113C52.3046 22.046 52.5158 21.7995 52.7248 21.5897L53.4018 21.0475C53.4827 20.9495 53.5367 20.8199 53.6106 20.7162C53.0917 20.5587 53.1793 20.5117 52.8663 20.0515C52.6505 19.7342 52.5799 19.7048 52.5165 19.2515L52.0868 19.4243L52.0867 19.4244Z" fill="#BFBFBF"/>
<path fill-rule="evenodd" clip-rule="evenodd" d="M52.3233 40.8111L52.5435 40.8227C52.5899 40.2282 52.5483 40.5384 52.8875 40.0602C52.9722 39.9408 53.0002 39.8468 53.1082 39.7203C53.4843 39.2798 53.0734 39.5797 53.5946 39.3879C53.5935 39.3864 53.3946 39.0486 53.39 39.0424C52.9432 38.8514 52.7108 38.4132 52.2172 38.0063C51.1951 37.1634 49.4604 38.05 51.1477 39.6252C51.5304 39.9825 51.9823 40.3766 52.3234 40.8111H52.3233Z" fill="#BFBFBF"/>
<path fill-rule="evenodd" clip-rule="evenodd" d="M56.0287 31.0042L56.0362 29.0923C55.0837 29.1218 54.1218 28.9931 54.0662 29.9801C54.0035 31.0887 55.0449 30.9668 56.0287 31.0042Z" fill="#BFBFBF"/>
<path fill-rule="evenodd" clip-rule="evenodd" d="M56.0283 31.0041C56.9933 31.0126 57.9173 31.0244 57.8569 29.9799C57.8025 29.0402 56.9626 29.0989 56.0358 29.092L56.0283 31.004V31.0041Z" fill="#ACACAC"/>
<path fill-rule="evenodd" clip-rule="evenodd" d="M53.6108 20.7161C53.8852 19.7125 53.4676 19.2812 52.5166 19.2515C52.58 19.7048 52.6505 19.7341 52.8664 20.0515C53.1795 20.5117 53.0919 20.5587 53.6107 20.7162L53.6108 20.7161Z" fill="#AFAFAF"/>
<path fill-rule="evenodd" clip-rule="evenodd" d="M52.5431 40.8229C53.4623 40.8341 53.9456 40.347 53.5941 39.3882C53.0729 39.58 53.4838 39.2801 53.1077 39.7205C52.9997 39.8471 52.9717 39.941 52.887 40.0605C52.5478 40.5387 52.5893 40.2285 52.543 40.823L52.5431 40.8229Z" fill="#AFAFAF"/>
</g>
<defs>
<clipPath id="clip0_493_204">
<rect width="65" height="52" fill="white" transform="translate(0 0.0878906)"/>
</clipPath>
</defs>
</svg>
