<svg width="62" height="62" viewBox="0 0 62 62" fill="none" xmlns="http://www.w3.org/2000/svg">
<g clip-path="url(#clip0_488_54)">
<path fill-rule="evenodd" clip-rule="evenodd" d="M24.1877 1.50836C24.42 1.93791 24.0733 1.58344 24.6253 1.95922L27.6268 3.68658C28.7653 4.33226 30.7037 5.17683 30.7873 6.00516C30.8674 6.79934 30.2217 7.32326 29.3978 7.04185C28.9828 6.90013 28.0679 6.30179 27.6288 6.04507C27.0261 5.6923 26.4836 5.38857 25.8778 5.03545C25.3461 4.72563 24.6385 4.27273 24.1494 4.0194C23.1178 3.26142 21.2839 3.55467 21.2565 4.66339C21.4202 4.93161 25.3661 7.14129 26.1934 7.61887C26.7924 7.96455 27.5561 8.21822 27.6698 8.9001C27.8084 9.73384 27.1557 10.2696 26.3047 10.0193C25.9746 9.92224 24.9764 9.27486 24.5252 9.02017C24.0936 8.77665 21.5366 7.12167 21.126 7.16057C20.7245 6.71072 20.1515 6.48038 19.3151 6.66134C19.0678 6.71478 18.805 6.87713 18.6183 7.01547C18.1766 7.3422 18.2808 7.28132 18.1022 7.81809C18.5097 7.87086 22.2658 10.0968 23.0918 10.5886C23.683 10.9407 24.3808 11.1054 24.397 11.8982C24.4129 12.6917 23.704 13.1466 22.9372 12.8581C22.5286 12.7042 21.6648 12.1228 21.2565 11.8921L17.9534 9.98346C17.9236 9.96723 17.8766 9.94456 17.84 9.9219C17.5918 9.64388 15.5472 8.98432 14.7875 11.3462C14.4151 12.5043 15.188 13.1554 16.0237 13.7091L16.7878 14.2817C17.447 14.3889 19.4071 15.8711 20.1015 16.3362C20.8825 16.8594 22.8009 18.0263 23.1757 18.5986C20.3768 22.192 18.0788 21.8351 20.3562 24.8924C21.1463 25.9531 24.4251 30.4895 24.164 32.271C23.449 32.9627 20.7593 33.7108 19.4395 34.5233C16.3951 36.3974 14.8338 39.2484 12.8924 42.1748C12.4168 42.8915 11.9778 43.6421 11.5428 44.3784C11.2448 44.8824 10.6492 46.2515 10.083 46.4825C10.7453 47.0102 11.5611 47.229 12.3434 46.6263C12.6566 46.3848 12.8924 46.1203 13.1088 45.8142L13.5895 45.1073C13.7863 44.8665 13.6317 45.0474 13.786 44.8918C13.8915 44.3432 15.6439 41.8981 16.0653 41.2748C17.9621 38.4705 18.8253 36.9904 22.0226 35.4024C24.4136 34.2148 24.7143 34.7783 26.2533 35.9026C26.7697 35.4717 27.2044 33.8959 27.248 33.2789C27.315 32.3295 26.8201 31.0865 26.4731 30.3424C26.0828 29.5049 24.2469 26.4358 23.6242 25.7515C23.5998 25.7255 23.564 25.6487 23.5525 25.6717L22.5652 24.3895C22.1515 23.8361 21.7991 23.387 22.3774 22.7467C22.7333 22.3523 24.5831 20.4856 24.9636 20.2992C25.5294 21.3024 26.6551 22.6811 26.8671 24.128C27.3715 24.543 27.6863 25.8517 30.076 24.9256C31.1999 24.4899 32.1476 23.9092 33.0845 23.3264L35.739 21.5081C36.9566 20.8966 38.1377 21.7915 38.7899 22.834C37.7146 22.8079 37.1477 23.044 36.4618 23.6728C36.2024 23.9109 36.4165 23.6829 36.2257 23.9494L35.9819 24.3232C35.8296 24.517 35.6013 24.9503 35.4633 25.1779C35.2354 25.554 35.0307 25.7681 34.9303 26.2626C36.4943 27.4133 36.8991 28.1121 40.0193 26.315L41.5184 25.2675C40.9613 25.1116 39.9815 24.055 39.7799 23.548C41.1406 22.5979 41.835 21.5165 42.9417 19.9038C43.3706 19.2788 45.5261 16.1809 45.6479 15.7057C45.5758 15.5065 45.6773 15.6901 45.5278 15.4814L43.8979 13.837C43.49 13.406 43.5234 13.195 43.2579 12.6362C42.7627 11.5931 42.4644 11.2248 41.8898 10.323C41.3127 9.41726 40.5176 8.59299 39.7034 7.91145C39.4731 7.71865 39.3699 7.58776 39.1369 7.36621C38.8305 7.25527 37.3676 6.26797 37.0175 5.98115C36.2866 5.68283 35.6977 5.30265 34.9215 4.92958C34.1811 4.57376 33.3748 4.23959 32.6492 3.92334C31.6146 3.47214 28.9155 2.26431 28.3584 1.63857C27.8457 1.36934 26.8929 0.727037 26.353 0.614743C26.302 0.604258 26.2526 0.594788 26.2045 0.58667H25.3627C24.8202 0.713507 24.5638 1.11161 24.1883 1.507L24.1877 1.50836Z" fill="#C28678"/>
<path fill-rule="evenodd" clip-rule="evenodd" d="M47.3924 17.2843C47.316 17.9046 45.1635 20.8398 44.6964 21.5298C43.7409 22.9416 42.7005 24.5448 41.5177 25.2686L40.0186 26.3161C36.8988 28.1131 36.4936 27.4144 34.9296 26.2637C34.8257 26.357 34.89 26.2708 34.7618 26.4585C34.3681 27.0338 33.9598 28.2694 33.9078 28.8853C33.8347 29.7492 34.4056 31.1809 34.7097 31.834C35.1511 32.7831 36.9018 35.7484 37.5586 36.413L37.7007 36.5788C37.7159 36.5967 37.7508 36.6363 37.7687 36.6579C37.7859 36.6786 37.8144 36.712 37.833 36.7347C40.322 39.744 38.7208 38.9555 36.4151 41.8339C36.6759 43.1276 39.2806 44.4282 39.6554 44.944L42.436 46.6848C42.9244 46.5482 45.4533 43.8335 46.1704 43.1175C47.983 41.3073 50.4291 41.6651 53.141 37.7318C54.7047 35.4643 56.2129 31.3071 58.1499 27.8828C58.6938 26.9212 59.5783 25.6237 59.9632 24.6466C59.6466 24.4359 59.306 24.2522 58.8555 24.2539C58.2409 24.2563 58.1405 24.5306 57.6196 24.6466L55.5182 28.2816C55.2652 28.6936 54.7345 29.7975 54.3962 30.0505C53.688 30.5806 52.7802 30.0647 52.7825 29.2499C52.7839 28.8008 56.4385 22.4176 56.8741 21.9076L56.6766 21.4912C56.5386 21.3532 56.7307 21.4168 56.2859 21.2937C56.0214 21.2206 56.0312 21.2125 55.7136 21.2355C55.3626 21.2612 55.0517 21.3678 54.9056 21.6228C53.3146 23.042 52.1713 26.5119 51.3481 27.0014C50.5363 27.4844 49.7168 26.8363 49.821 25.9938C49.8751 25.5554 53.6613 19.0427 54.0482 18.599C53.2381 18.257 52.4757 17.9249 51.757 18.7299C50.8962 18.9656 49.223 23.4043 48.3791 23.7729C47.59 24.1176 46.857 23.4689 46.9514 22.7166C47.0549 21.889 50.7951 16.3967 50.8377 15.5752C50.3124 14.896 49.0407 14.9681 48.0757 16.3633L47.3924 17.2843Z" fill="#EAAD9C"/>
<path fill-rule="evenodd" clip-rule="evenodd" d="M6.87777 22.5426C6.66333 23.102 5.69666 24.3427 5.28435 25.1057C4.77599 26.0464 4.37687 26.8591 3.94799 27.843C3.39836 29.104 1.89661 32.6547 1.14336 33.3197C0.871424 33.8396 0.187179 34.8438 0.0995762 35.4408C0.0968704 35.4601 0.0941645 35.479 0.0917969 35.4979V36.2654C0.207134 36.926 0.651911 37.2107 1.1552 37.5294C1.83268 36.4676 2.53485 35.1972 3.18426 34.0496C3.8242 32.9186 4.708 30.9609 5.51198 30.8871C6.30649 30.8144 6.82365 31.4885 6.55002 32.283C6.40931 32.692 5.79035 33.6184 5.54276 34.0452C5.09663 34.814 3.78429 36.9033 3.56308 37.5294C2.69518 38.4588 3.11492 39.8321 3.61517 40.1882C3.97742 40.446 3.79849 40.3036 4.03526 40.3184C4.51656 40.378 4.07855 40.5873 4.47868 40.082C4.5585 39.9812 4.66843 39.7539 4.72153 39.6579L6.16207 37.1549C6.56253 36.4612 7.62628 34.1379 8.40286 34.0084C9.26941 33.8636 9.81397 34.5867 9.48318 35.476C9.18012 36.2901 6.61868 40.0083 6.66367 40.5528C6.21382 40.9543 5.98348 41.5273 6.16443 42.3637C6.21821 42.612 6.37955 42.8728 6.5189 43.0605C6.84293 43.4975 6.779 43.3933 7.30496 43.5766C7.38207 43.1227 8.79521 40.8437 9.12938 40.2582C9.81701 39.0538 10.5344 37.3051 11.4026 37.2828C12.1715 37.2632 12.6524 37.9444 12.3551 38.7426C12.1968 39.1678 11.633 40.0066 11.3962 40.4229L9.425 43.8388C9.14697 44.087 9.07594 44.8163 9.18891 45.3869C9.31 45.9991 9.57991 46.1864 10.0825 46.4821C10.6487 46.251 11.2444 44.8819 11.5423 44.3779C11.9773 43.6416 12.4167 42.891 12.8919 42.1743C14.8333 39.2479 16.3946 36.3973 19.4391 34.5228C20.7585 33.7107 23.4485 32.9625 24.1635 32.2705C24.4246 30.489 21.1458 25.953 20.3557 24.892C18.0787 21.8347 20.3763 22.1912 23.1752 18.5981C22.8004 18.0258 20.882 16.8589 20.101 16.3357C19.4066 15.8706 17.4465 14.3885 16.7873 14.2812C16.2905 14.9452 15.2348 15.878 14.5851 16.5278C11.7899 19.3226 13.1956 17.5279 10.5358 19.3148C10.2469 19.509 10.2293 19.5398 9.90935 19.74C9.61306 19.9257 9.49265 20.0109 9.21563 20.2294C8.22394 21.0107 7.71659 21.6267 6.87709 22.5423L6.87777 22.5426Z" fill="#EAAD9C"/>
<path fill-rule="evenodd" clip-rule="evenodd" d="M25.3316 38.0557L25.0407 38.284C25.0265 38.2945 24.8209 38.4419 24.7962 38.4595L23.4257 39.4417C22.4827 39.9366 22 38.9966 21.5654 38.5769C20.3467 38.9946 19.0997 41.0193 18.2423 42.2728C17.8137 42.8992 15.6568 45.9869 15.5381 46.4696C15.6835 46.891 16.957 47.9916 17.2847 48.3379C17.6926 48.7689 17.6591 48.9799 17.9247 49.5387C18.7341 51.243 20.4699 53.7159 22.0457 54.7492C22.5601 54.9907 23.4277 55.7097 24.1062 56.1095C24.5019 56.3426 24.8151 56.4931 25.2139 56.7085C25.6401 56.9389 25.8789 57.2345 26.367 57.3356C26.8983 56.9176 27.2112 57.5379 28.8631 57.0897C31.0007 56.5097 29.9651 56.2641 30.5056 55.7135C30.6946 54.944 31.156 55.0553 31.9539 55.0962C32.3016 54.8239 32.4785 54.6274 32.7958 54.3314C33.1932 53.9604 33.4573 53.9019 33.455 53.2904C33.5784 52.2936 33.7854 52.1282 34.8228 52.0599C35.5375 51.9753 36.2315 50.8206 36.8021 50.4144C36.7727 49.6192 37.1082 49.2468 37.8858 49.2302L38.7706 48.3383C40.8261 46.2358 39.4691 45.3358 39.6555 44.9445C39.2804 44.4287 36.676 43.1285 36.4152 41.8344C35.7221 41.5567 34.8965 39.7472 34.5464 38.8329C33.8179 36.9317 34.6855 36.4274 35.4066 35.4273C35.3102 35.3123 35.4187 35.3985 35.2192 35.2595C34.6577 34.8675 33.4005 34.4569 32.7941 34.4055C30.8827 34.2438 25.957 37.2483 25.332 38.0563L25.3316 38.0557Z" fill="#C28678"/>
<path fill-rule="evenodd" clip-rule="evenodd" d="M42.4362 46.6844C42.6496 46.9253 42.5806 46.8471 42.8925 47.0572C43.0396 47.1563 43.1678 47.229 43.3691 47.365C43.7391 47.6153 43.9231 47.8199 44.3949 47.8825C44.8461 47.3183 47.6426 44.3851 48.4111 44.0435C49.9497 43.3596 49.9981 43.2334 51.2726 42.4352C51.5689 42.2495 51.6893 42.1643 51.9663 41.9458C53.1903 40.9815 53.3449 40.6412 54.3136 39.633C54.481 39.15 55.516 37.7788 55.8986 37.0695C56.3927 36.1525 56.8105 35.3141 57.2332 34.3301C57.7531 33.121 59.3283 29.4728 60.0392 28.8575C60.3108 28.3333 60.9951 27.3341 61.083 26.7344C61.0857 26.7148 61.0884 26.6955 61.0908 26.6763V25.9937C60.9856 25.28 60.5351 24.8383 59.9628 24.6455C59.5782 25.6227 58.6934 26.9201 58.1495 27.8817C56.2121 31.3063 54.7039 35.4632 53.1406 37.7307C50.4287 41.664 47.9826 41.3062 46.17 43.1164C45.4533 43.8325 42.924 46.5475 42.4355 46.6838L42.4362 46.6844Z" fill="#C28778"/>
<path fill-rule="evenodd" clip-rule="evenodd" d="M54.3135 39.6333C54.8963 39.8329 55.5267 40.8307 56.095 41.2109C56.4694 40.4979 56.9862 39.9188 57.4222 39.1226C57.7949 38.4421 58.1041 37.517 58.6405 36.9958L58.6222 43.7087C58.7886 44.0253 59.5135 44.8638 59.9664 44.9795C60.8187 45.1966 61.0507 44.5208 61.0907 43.8646V30.3198C61.0173 29.5689 60.5184 29.1677 60.0391 28.8579C59.3281 29.4732 57.753 33.1213 57.2331 34.3305C56.8103 35.3141 56.3923 36.1526 55.8984 37.0699C55.5162 37.7791 54.4812 39.1507 54.3135 39.6333Z" fill="#EBB044"/>
<path fill-rule="evenodd" clip-rule="evenodd" d="M13.7852 44.8918C14.4136 45.3633 14.8161 46.1044 15.5382 46.4693C15.6569 45.9867 17.8139 42.8993 18.2424 42.2725C19.0995 41.019 20.3469 38.9944 21.5655 38.5767C21.9998 38.9961 22.4828 39.936 23.4258 39.4415L24.7963 38.4593C24.821 38.4414 25.0267 38.2942 25.0409 38.2837L25.3318 38.0554C25.2482 37.7125 25.1606 38.0172 25.4085 37.4838C25.5269 37.2291 25.5831 37.2132 25.7187 36.9964C25.9531 36.622 26.154 36.4028 26.2528 35.9022C24.7138 34.778 24.4131 34.2145 22.0221 35.402C18.8252 36.99 17.9617 38.4701 16.0648 41.2744C15.6434 41.8978 13.8907 44.3428 13.7855 44.8915L13.7852 44.8918Z" fill="#9D6C6C"/>
<path fill-rule="evenodd" clip-rule="evenodd" d="M28.3578 1.63946C28.9145 2.26519 31.6136 3.47268 32.6486 3.92422C33.3745 4.24081 34.1805 4.57464 34.9209 4.93047C35.6971 5.30387 36.286 5.68371 37.0169 5.98203C37.3484 5.27918 41.5871 1.39289 42.2433 0.587891H42.1269H42.0106H41.8942H41.7779H41.6615H41.5452H41.4288H41.3125H41.1961H41.0798H40.9634H40.8471H40.7307H40.6144H40.498H40.3816H40.2653H40.1489H40.0326H39.9162H39.7999H39.6835H39.5672H39.4508H39.3345H39.2181H39.1018H38.9854H38.8691H38.7527H38.6364H38.52H38.4037H38.2873H38.171H38.0546H37.9383H37.8219H37.7055H37.5892H37.4728H37.3565H37.2401H37.1238H37.0074H36.8911H36.7747H36.6584H36.542H36.4257H36.3093H36.193H36.0766H35.9603H35.8439H35.7276H35.6112H35.4949H35.3785H35.2622H35.1458H35.0294H34.9131H34.7967H34.7392H34.6817H34.6242H34.5667C33.4259 0.588229 32.285 0.589244 31.1445 0.587891H30.4092C29.2734 0.598038 28.9737 0.706949 28.3564 1.63946H28.3578Z" fill="#BEE1E5"/>
<path fill-rule="evenodd" clip-rule="evenodd" d="M17.9704 59.1246C16.8218 59.6996 15.8175 61.4665 17.8246 61.588H31.3593C32.1099 61.5146 32.512 61.0157 32.8205 60.5364C32.2256 59.8691 30.9585 59.5505 30.2455 59.0005C30.2124 59.0177 30.1678 59.0326 30.1407 59.0401C29.3188 59.2731 18.5532 59.1392 17.9701 59.1243L17.9704 59.1246Z" fill="#DE5CA3"/>
<path fill-rule="evenodd" clip-rule="evenodd" d="M0.0908203 30.4593C0.95805 29.5085 1.82426 26.9735 2.47638 25.584C2.84776 24.7929 3.28103 23.9256 3.6585 23.2187C4.06946 22.4493 4.80376 21.5709 5.08246 20.9651C4.66103 20.3167 3.02499 18.839 2.35867 18.1713C1.96023 17.7722 1.43293 16.9662 0.708096 17.2269C0.302892 17.3727 0.145276 17.643 0.0908203 18.0012V19.4163C0.096232 22.982 0.0911585 26.5476 0.0908203 30.1133V30.2861V30.4593H0.0908203Z" fill="#FFF0AE"/>
<path fill-rule="evenodd" clip-rule="evenodd" d="M37.8857 49.2293C38.5771 49.3859 39.9909 50.3089 40.6028 50.6539L43.3425 52.2541C43.5887 52.5297 45.6313 53.1954 46.3953 50.8294C46.6335 50.0918 46.3558 49.5059 45.9002 49.0395C45.3955 48.523 44.8804 48.3931 44.3947 47.8828C43.9229 47.8198 43.7389 47.6156 43.3688 47.3653C43.1679 47.2293 43.0397 47.1566 42.8923 47.0575C42.5801 46.8474 42.6494 46.9256 42.436 46.6847L39.6554 44.9438C39.4687 45.3352 40.826 46.2352 38.7706 48.3377L37.8857 49.2296V49.2293Z" fill="#9D6C6C"/>
<path fill-rule="evenodd" clip-rule="evenodd" d="M26.8665 24.1283C27.0197 25.5698 26.2938 26.0468 25.7686 26.7496C26.2106 27.2488 27.8226 27.7237 28.3882 27.7714C29.251 27.8445 30.6848 27.2735 31.3369 26.9695C32.2603 26.5392 32.9516 26.1053 33.7722 25.5922C34.178 25.3382 34.4632 25.1339 34.8778 24.8572C35.1045 24.706 35.2049 24.6245 35.4217 24.4615C35.9277 24.0803 35.7715 24.0569 35.9815 24.3238L36.2254 23.9501C36.4161 23.6835 36.2017 23.9112 36.4615 23.6734C37.1474 23.0446 37.7143 22.8085 38.7895 22.8346C38.1374 21.7921 36.9563 20.8968 35.7387 21.5087L33.0842 23.327C32.1473 23.9101 31.1996 24.4909 30.0756 24.9262C27.6863 25.8523 27.3711 24.5436 26.8668 24.1286L26.8665 24.1283Z" fill="#9D6C6C"/>
<path fill-rule="evenodd" clip-rule="evenodd" d="M0.0911585 31.3903C0.105703 32.3999 0.234569 32.7242 1.14273 33.3202C1.89563 32.6549 3.39773 29.1041 3.94735 27.8435C4.37623 26.8596 4.77535 26.0469 5.28371 25.1062C5.69602 24.3432 6.66303 23.1025 6.87713 22.5431C6.24362 22.3351 5.67539 21.3545 5.08246 20.9656C4.80376 21.5714 4.06912 22.4497 3.6585 23.2192C3.28103 23.9261 2.84776 24.7934 2.47638 25.5845C1.82426 26.9739 0.95805 29.5093 0.0908203 30.4598V31.3906L0.0911585 31.3903Z" fill="#FFD064"/>
<path fill-rule="evenodd" clip-rule="evenodd" d="M17.9707 59.1246C18.5538 59.1395 29.3194 59.2735 30.1413 59.0404C30.1684 59.0326 30.213 59.0178 30.2462 59.0009L26.3673 57.3357C25.8793 57.2346 25.6408 56.939 25.2143 56.7086C24.8152 56.4932 24.502 56.343 24.1066 56.1096C23.4281 55.7098 22.5605 54.9908 22.0461 54.7493C21.9057 55.2806 21.4569 55.5387 21.0929 55.9023C20.7101 56.2845 20.4239 56.5713 20.0414 56.9539C19.4542 57.541 18.3417 58.4769 17.9707 59.1246Z" fill="#E591B8"/>
<path fill-rule="evenodd" clip-rule="evenodd" d="M41.5178 25.2684C42.7006 24.5446 43.7407 22.9414 44.6965 21.5296C45.1636 20.8396 47.3161 17.9044 47.3926 17.2841C46.7736 16.8078 46.363 16.0728 45.6473 15.7065C45.5255 16.1818 43.37 19.2793 42.9411 19.9047C41.8344 21.5174 41.14 22.5987 39.7793 23.5488C39.9809 24.0562 40.9607 25.1125 41.5178 25.2684Z" fill="#9D6C6C"/>
<path fill-rule="evenodd" clip-rule="evenodd" d="M37.0166 5.98203C37.3667 6.26852 38.8295 7.25616 39.136 7.3671C39.3765 6.6585 44.1252 2.45291 44.4063 1.89922C44.6302 1.45783 44.4347 0.907183 44.0292 0.691052C43.9345 0.640655 43.8164 0.608185 43.6838 0.587891H42.2433C41.5871 1.39322 37.3484 5.27918 37.0169 5.98203H37.0166Z" fill="#94CBD3"/>
<path fill-rule="evenodd" clip-rule="evenodd" d="M23.6238 25.7515C24.3957 25.7806 24.9196 26.5778 25.7689 26.7497C26.2942 26.0468 27.02 25.5699 26.8668 24.1284C26.6547 22.6814 25.5291 21.3028 24.9632 20.2996C24.5827 20.4859 22.7329 22.3526 22.3771 22.747C21.7987 23.3873 22.1512 23.8365 22.5648 24.3898L23.5521 25.6721C23.5636 25.6491 23.5995 25.7258 23.6238 25.7519V25.7515Z" fill="#785252"/>
<path fill-rule="evenodd" clip-rule="evenodd" d="M36.4154 41.8339C38.7211 38.9555 40.3223 39.744 37.8333 36.7347C37.8147 36.712 37.7863 36.6786 37.769 36.6579C37.7511 36.6363 37.7159 36.5964 37.701 36.5788L37.559 36.413C36.802 36.4171 36.2575 35.5952 35.4068 35.4268C34.686 36.4269 33.8185 36.9312 34.5467 38.8324C34.8967 39.7467 35.7224 41.5562 36.4154 41.8339Z" fill="#9D6C6C"/>
<path fill-rule="evenodd" clip-rule="evenodd" d="M26.3675 57.3352L30.2464 59.0004C30.9594 59.5503 32.2264 59.8686 32.8213 60.5363C33.5269 60.9009 34.2889 61.4255 35.0219 61.5878H35.8387C36.2666 61.4732 36.6715 61.1485 37.033 60.4926C35.8624 59.8564 34.5835 59.0951 33.3835 58.403C32.7385 58.0313 32.1104 57.6687 31.5513 57.343C30.7855 56.8972 30.2893 56.8428 30.5058 55.7124C29.9653 56.263 31.001 56.5086 28.8633 57.0887C27.2114 57.5368 26.8986 56.9165 26.3672 57.3346L26.3675 57.3352Z" fill="#9D6C6C"/>
<path fill-rule="evenodd" clip-rule="evenodd" d="M57.6199 24.6461C58.4456 23.7613 58.2301 22.3278 57.1938 21.7102C56.77 21.4576 57.2594 21.6118 56.6773 21.4907L56.8748 21.9071C56.4392 22.4175 52.7846 28.8003 52.7832 29.2495C52.7805 30.0643 53.6883 30.5801 54.3969 30.05C54.7355 29.7967 55.2658 28.6931 55.5188 28.2811L57.6203 24.6461H57.6199Z" fill="#C28778"/>
<path fill-rule="evenodd" clip-rule="evenodd" d="M54.9052 21.6224C54.4151 21.4124 54.7249 21.6214 54.939 21.0136C55.0482 20.7031 55.0976 20.3328 55.0374 19.9262C54.9387 19.2606 54.502 18.9206 54.0477 18.5986C53.6608 19.0424 49.875 25.5551 49.8205 25.9934C49.7163 26.836 50.5359 27.4837 51.3476 27.001C52.1709 26.5116 53.3141 23.0413 54.9052 21.6224Z" fill="#C28778"/>
<path fill-rule="evenodd" clip-rule="evenodd" d="M51.7568 18.7296C51.8587 18.0845 52.1597 17.6289 51.9929 16.7884C51.9564 16.6041 51.7941 16.2381 51.6554 16.0754C51.4196 15.7981 51.1768 15.7132 50.8368 15.5752C50.7942 16.3964 47.054 21.889 46.9505 22.7166C46.8565 23.4685 47.5895 24.1176 48.3782 23.7729C49.2221 23.4043 50.8954 18.9656 51.7562 18.7299L51.7568 18.7296Z" fill="#C28778"/>
<path fill-rule="evenodd" clip-rule="evenodd" d="M31.9541 55.0956C32.1587 55.33 36.5717 57.9317 37.033 58.1414C37.4967 58.5172 38.1573 58.736 38.7468 58.5794C39.0844 58.4898 39.3225 58.3515 39.5413 58.1756C40.1299 57.7017 39.9256 57.5394 39.9259 57.5126C39.7646 57.2444 35.7335 54.9833 34.9032 54.5145C33.2438 53.5773 34.0051 53.9527 33.4552 53.2898C33.4575 53.9017 33.1934 53.9598 32.796 54.3309C32.4787 54.6268 32.3018 54.8233 31.9541 55.0956Z" fill="#9D6C6C"/>
<path fill-rule="evenodd" clip-rule="evenodd" d="M34.8226 52.0588C35.055 52.2817 35.0834 52.2493 35.4108 52.4309C35.6966 52.5895 35.813 52.6524 36.0829 52.8111L39.4043 54.7556C39.8437 55.04 39.6319 55.0431 40.0561 55.015C40.4576 55.4645 41.0305 55.6952 41.867 55.5142C42.1176 55.4601 42.3733 55.3005 42.5637 55.1584C42.9896 54.8405 42.8837 54.9112 43.0799 54.4119C42.4471 54.2174 40.4924 52.9876 39.7571 52.5537C39.1858 52.2161 38.646 51.9256 38.0903 51.5884C37.4243 51.1838 37.0103 51.1994 36.8016 50.4133C36.231 50.8195 35.537 51.9743 34.8223 52.0588H34.8226Z" fill="#9D6C6C"/>
<path fill-rule="evenodd" clip-rule="evenodd" d="M30.5061 55.713C30.2896 56.8433 30.7858 56.8978 31.5515 57.3436C32.1106 57.6693 32.7387 58.0316 33.3838 58.4036C34.5838 59.0953 35.8627 59.8567 37.0333 60.4932C37.2038 60.2341 37.4256 59.7789 37.4256 59.3527C37.4256 58.7456 37.151 58.6289 37.0333 58.1415C36.5719 57.9318 32.159 55.3301 31.9544 55.0957C31.1565 55.0551 30.6951 54.9435 30.5061 55.713Z" fill="#785252"/>
<path fill-rule="evenodd" clip-rule="evenodd" d="M24.1496 4.01934C24.6387 4.27268 25.3462 4.72557 25.878 5.0354C26.4837 5.38851 27.0262 5.69224 27.629 6.04502C28.068 6.30174 28.9829 6.90041 29.3979 7.04179C30.2222 7.3232 30.8679 6.79894 30.7874 6.00511C30.7035 5.17712 28.7654 4.33221 27.627 3.68652L24.6255 1.95917C24.0735 1.58339 24.4202 1.93786 24.1878 1.5083C24.0539 1.88645 23.7968 2.25816 23.763 2.70801C23.7139 3.35573 24.0271 3.53635 24.1499 4.01934H24.1496Z" fill="#9D6C6C"/>
<path fill-rule="evenodd" clip-rule="evenodd" d="M1.1543 37.5297C1.4374 37.688 1.89367 37.922 2.32627 37.922C2.93712 37.922 3.04265 37.6454 3.56252 37.5297C3.78372 36.9036 5.0964 34.814 5.54219 34.0455C5.78978 33.6187 6.40875 32.6923 6.54945 32.2834C6.82274 31.4888 6.30559 30.8147 5.51141 30.8875C4.70743 30.9612 3.82363 32.9189 3.1837 34.0499C2.53429 35.1976 1.83212 36.468 1.15464 37.5297H1.1543Z" fill="#C28778"/>
<path fill-rule="evenodd" clip-rule="evenodd" d="M4.03516 40.3191C4.15692 40.6502 4.27936 40.8846 5.23622 40.9391C5.56431 40.9577 5.69825 40.9042 5.88225 40.839C6.44845 40.6381 5.97932 40.6763 6.66356 40.5535C6.61858 40.0089 9.18002 36.2907 9.48308 35.4766C9.81387 34.5874 9.26931 33.8643 8.40276 34.009C7.62618 34.1389 6.56243 36.4619 6.16197 37.1556L4.72143 39.6585C4.66799 39.7549 4.55806 39.9822 4.47858 40.0827C4.07845 40.588 4.51646 40.3786 4.03516 40.3191Z" fill="#C28778"/>
<path fill-rule="evenodd" clip-rule="evenodd" d="M33.4551 53.2894C34.005 53.9527 33.2437 53.5773 34.9031 54.5142C35.7334 54.983 39.7645 57.2444 39.9258 57.5123C40.3148 57.3496 40.1423 57.5363 40.3422 56.9958C40.352 56.9691 40.4491 56.4282 40.4477 56.3268C40.4393 55.6699 40.193 55.7748 40.0567 55.0148C39.6326 55.0428 39.8443 55.0398 39.4049 54.7553L36.0835 52.8108C35.8136 52.6522 35.6969 52.5893 35.4114 52.4306C35.084 52.249 35.0556 52.2815 34.8232 52.0586C33.7859 52.1269 33.5789 52.2923 33.4554 53.2891L33.4551 53.2894Z" fill="#785252"/>
<path fill-rule="evenodd" clip-rule="evenodd" d="M21.1251 7.16051C21.536 7.12161 24.0931 8.77658 24.5243 9.02011C24.9755 9.2748 25.9736 9.92218 26.3037 10.0193C27.1547 10.2695 27.8079 9.73378 27.6689 8.90004C27.5555 8.21782 26.7918 7.96448 26.1925 7.61881C25.3652 7.14123 21.4193 4.93155 21.2556 4.66333C20.8667 4.82602 21.0391 4.63932 20.8393 5.17981C20.5078 6.07579 20.9867 6.39102 21.1247 7.16084L21.1251 7.16051Z" fill="#9D6C6C"/>
<path fill-rule="evenodd" clip-rule="evenodd" d="M36.8022 50.4135C37.0109 51.1996 37.4246 51.184 38.0909 51.5885C38.6466 51.9261 39.1864 52.2166 39.7577 52.5538C40.493 52.9878 42.4477 54.2179 43.0805 54.4121C43.2658 54.1828 43.4576 53.6524 43.4478 53.3037C43.4387 52.9824 43.3737 53.0331 43.2757 52.6939C43.1522 52.2674 42.9831 52.453 43.343 52.2538L40.6033 50.6536C39.9914 50.3086 38.5776 49.3856 37.8863 49.229C37.1087 49.2456 36.7731 49.618 36.8026 50.4132L36.8022 50.4135Z" fill="#785252"/>
<path fill-rule="evenodd" clip-rule="evenodd" d="M7.30566 43.5771C7.50218 43.7932 8.02204 43.9546 8.3755 43.9444C8.69716 43.9353 8.64608 43.8707 8.98567 43.7723C9.41218 43.6488 9.22649 43.4797 9.42571 43.8396L11.3969 40.4238C11.6337 40.0071 12.1972 39.1682 12.3558 38.7434C12.6531 37.9452 12.1722 37.264 11.4034 37.2836C10.5351 37.3059 9.81772 39.0546 9.13009 40.2591C8.79592 40.8445 7.38278 43.1235 7.30566 43.5775V43.5771Z" fill="#C28778"/>
<path fill-rule="evenodd" clip-rule="evenodd" d="M17.84 9.92217C17.8765 9.94449 17.9235 9.96715 17.9533 9.98373L21.2565 11.8924C21.6647 12.1231 22.5286 12.7045 22.9372 12.8584C23.7039 13.1469 24.4125 12.692 24.397 11.8985C24.3811 11.1056 23.683 10.9409 23.0917 10.5888C22.2654 10.0967 18.5094 7.87079 18.1021 7.81836C17.8758 7.99356 17.7253 8.53237 17.7348 8.87229C17.7439 9.19395 17.8085 9.14288 17.907 9.48247C18.0304 9.90898 18.1995 9.72329 17.8396 9.92251L17.84 9.92217Z" fill="#9D6C6C"/>
<path fill-rule="evenodd" clip-rule="evenodd" d="M56.0957 41.2107L58.623 43.7085L58.6412 36.9956C58.1051 37.5168 57.7957 38.4419 57.4229 39.1224C56.9869 39.9186 56.4701 40.4977 56.0957 41.2107Z" fill="#FFCE63"/>
</g>
<defs>
<clipPath id="clip0_488_54">
<rect width="61" height="61" fill="white" transform="translate(0.0908203 0.587891)"/>
</clipPath>
</defs>
</svg>
