<svg width="55" height="55" viewBox="0 0 55 55" fill="none" xmlns="http://www.w3.org/2000/svg">
<g clip-path="url(#clip0_493_231)">
<path fill-rule="evenodd" clip-rule="evenodd" d="M0.0900405 21.0971V40.6288C0.0900405 41.9316 -0.0605315 42.6152 0.470289 43.4988C0.759391 43.9799 1.75084 44.9614 2.45005 44.6626C3.12527 44.6626 3.80167 44.6589 4.4767 44.6633C5.23788 44.6683 5.66561 44.81 5.85544 44.1486C5.97733 43.7238 5.92632 40.7583 5.88882 40.1519C5.24062 40.1098 4.79331 39.8971 4.75307 39.2695C4.70784 38.5633 5.22907 38.3172 5.91017 38.2841C5.91017 36.0034 5.91017 33.7228 5.91017 31.4421C5.91017 29.9337 6.15012 25.7488 5.69165 24.6985C6.77101 24.9448 8.40909 25.6855 9.49805 26.0972C10.794 26.5874 11.932 27.029 13.2395 27.5257C14.2952 27.9267 20.3192 30.1036 20.7794 30.4339C20.8891 31.1104 20.616 33.2419 20.9445 33.6071L20.8746 26.9514C19.5013 26.9242 18.6653 26.4824 18.5661 25.1393C18.467 23.7946 18.4569 22.5299 19.327 21.9399C20.1907 21.3543 21.8388 21.59 23.0159 21.59C24.2497 21.59 25.6526 21.4491 26.7835 21.7572C27.999 22.4927 27.9722 23.3348 27.8739 25.0629C27.7947 26.4544 26.9146 26.927 25.5273 26.9423L25.5793 30.4098C26.461 30.2071 27.521 29.7173 28.3764 29.3959L36.607 26.2809C38.2717 25.6294 43.5801 23.7338 44.8189 23.15C45.3649 22.8927 45.5391 22.6998 45.873 22.2986C46.3291 21.7506 46.2154 21.5637 46.5038 21.0275C46.5038 18.4866 46.5038 15.9458 46.5038 13.4049C46.5038 12.1446 46.5357 10.8454 46.5091 9.59057C46.4844 8.42799 45.7029 7.53644 44.8186 7.24316C45.1316 7.84641 45.5251 7.91453 45.4302 8.92603C45.2344 11.0123 42.6952 10.4892 40.7724 10.4892C36.5277 10.4892 8.85621 10.2987 7.84205 10.6298C5.38091 11.4331 5.92113 14.1004 5.92113 16.8781C5.92113 25.1072 6.7668 25.1624 2.01233 23.2568C0.455897 22.6329 0.489575 21.8613 0.0899426 21.0974L0.0900405 21.0971Z" fill="#DFB6A2"/>
<path fill-rule="evenodd" clip-rule="evenodd" d="M25.5796 30.4097C25.4372 32.1184 25.942 34.037 24.865 35.0792C23.7059 36.2008 21.9248 35.831 21.1753 34.5047C21.0175 34.0451 20.9496 34.1709 20.9448 33.6071C20.6161 33.2419 20.8894 31.1103 20.7796 30.4338C20.3195 30.1035 14.2955 27.9266 13.2398 27.5256C11.9322 27.0289 10.7942 26.5873 9.4983 26.0972C8.40934 25.6853 6.77126 24.9447 5.6919 24.6984C6.15037 25.7487 5.91041 29.9336 5.91041 31.4421C5.91041 33.7227 5.91041 36.0034 5.91041 38.284C7.04166 38.2967 8.17408 38.2874 9.30553 38.2871C10.3004 38.2868 11.7775 38.0476 11.7029 39.2805C11.6339 40.422 10.1505 40.1461 9.19314 40.146C8.09449 40.146 6.98635 40.1321 5.88897 40.1518C5.92647 40.7583 5.97748 43.7238 5.85559 44.1485C5.66576 44.8099 5.23813 44.6682 4.47685 44.6632C3.80172 44.6588 3.12542 44.6625 2.4502 44.6625C2.66685 44.9359 2.47379 44.8237 2.89555 44.8944C2.9489 44.9034 3.47659 44.8898 3.57302 44.8882C9.72748 44.7803 16.8321 44.886 23.0163 44.886C23.0163 45.8237 22.8752 50.9427 23.1104 51.3839C23.1058 48.7775 23.0684 46.1421 23.0887 43.5413C23.1085 41.0337 24.5713 39.4534 27.0618 39.4474C29.721 39.4411 32.3817 39.4498 35.0411 39.4498C37.6204 39.4498 40.4028 39.549 42.9568 39.4392C43.4132 38.045 42.6112 36.3225 43.5906 35.7078C44.7844 34.9587 45.974 36.7527 46.5042 37.1185V21.0271C46.2157 21.5633 46.3295 21.7502 45.8734 22.2982C45.5395 22.6994 45.3653 22.8924 44.8193 23.1496C43.5804 23.7335 38.272 25.629 36.6073 26.2805L28.3768 29.3956C27.5213 29.7169 26.4613 30.2069 25.5796 30.4095V30.4097Z" fill="#C79A83"/>
<path fill-rule="evenodd" clip-rule="evenodd" d="M29.0792 47.3508C28.7029 45.7267 31.5242 46.1647 33.5795 46.1647C34.516 46.1647 35.4525 46.1655 36.389 46.1646C37.305 46.1636 38.3403 46.0036 38.5631 46.8567C38.9813 48.4579 36.1864 48.0241 34.1414 48.0241C33.2049 48.0241 32.2684 48.0235 31.3319 48.0241C30.4377 48.0247 29.2777 48.2077 29.0792 47.3508V47.3508ZM49.9588 54.745H31.6689H26.5557C24.9048 54.5052 23.5338 53.7991 23.2402 51.9447C23.2658 51.9688 23.2917 52.0041 23.3088 52.0247C23.725 52.5298 23.9894 52.9206 24.9264 52.9201C27.8242 52.9187 26.4016 49.0942 27.0089 47.2958C28.0556 44.1967 31.2277 44.7882 34.7033 44.7882L52.6685 44.757C53.4725 44.633 53.6313 44.1159 54.0331 43.6104C54.0331 45.492 54.0331 47.3737 54.0331 49.2554C54.0331 50.9873 54.235 52.5808 52.94 53.7674C52.524 54.1485 51.751 54.5811 51.0702 54.7042C50.9746 54.7215 50.5763 54.7348 49.9589 54.7451L49.9588 54.745ZM48.0127 47.4628C47.5675 48.3268 45.8693 48.024 44.8177 48.0241C43.7722 48.0242 41.7734 48.2692 42.3578 46.7174C42.6931 45.8269 44.6958 46.173 45.6044 46.1728C46.066 46.1727 47.1 46.1193 47.49 46.241C47.8992 46.3688 48.2917 46.9214 48.0127 47.4628Z" fill="#CBE3F9"/>
<path fill-rule="evenodd" clip-rule="evenodd" d="M0.0899111 21.0971C0.489641 21.861 0.455866 22.6327 2.0123 23.2564C6.76677 25.162 5.9211 25.1069 5.9211 16.8778C5.9211 14.1001 5.38088 11.4327 7.84202 10.6294C8.85617 10.2984 36.5276 10.4889 40.7723 10.4889C42.6951 10.4889 45.2345 11.0119 45.4302 8.92567C45.525 7.91418 45.1317 7.84606 44.8186 7.24281C44.6178 7.00038 44.5212 6.99443 44.1438 7.09183C37.2326 6.88883 30.1556 7.0807 23.2407 7.0807C16.3277 7.0807 9.24856 6.88336 2.33753 7.09319C1.51055 6.93138 0.466635 7.91516 0.18047 8.90157C-0.0570386 9.72031 0.0898131 19.7358 0.0898131 21.097L0.0899111 21.0971Z" fill="#EFC9B8"/>
<path fill-rule="evenodd" clip-rule="evenodd" d="M23.1096 51.3841C23.1327 51.7488 23.0557 51.7804 23.2403 51.9448C23.2659 51.9689 23.2918 52.0041 23.3089 52.0247C23.7251 52.5299 23.9895 52.9207 24.9265 52.9202C27.8243 52.9187 26.4017 49.0943 27.009 47.2959C28.0557 44.1968 31.2278 44.7883 34.7034 44.7883L52.6686 44.7571C53.4726 44.633 53.6314 44.116 54.0332 43.6104C54.0332 42.0164 53.7791 40.9653 52.397 40.0193C51.841 39.6388 51.2283 39.39 50.3287 39.3924C49.4282 39.3947 48.528 39.3965 47.6273 39.3965C47.3882 38.3737 47.0404 37.8826 46.5035 37.1186C45.9734 36.7528 44.7839 34.9587 43.59 35.708C42.6107 36.3225 43.4127 38.0451 42.9562 39.4393C40.4021 39.5492 37.6198 39.4499 35.0405 39.4499C32.3811 39.4499 29.7203 39.4413 27.0611 39.4476C24.5706 39.4536 23.1079 41.0338 23.0881 43.5414C23.0676 46.1423 23.1051 48.7777 23.1097 51.3841H23.1096Z" fill="#EDF6FF"/>
<path fill-rule="evenodd" clip-rule="evenodd" d="M16.2734 4.55408C16.2734 3.52102 17.0287 2.64957 18.0715 2.64957H28.523C29.2249 2.64957 30.0964 3.51838 30.0964 4.21806V6.90685H16.2733V4.55408H16.2734ZM18.8698 0.744971H19.5325H27.0621H28.5445C29.1741 0.770834 29.6737 0.87497 30.2779 1.23618C32.4652 2.54358 32.1192 4.59839 32.1192 6.90675L43.5904 6.89329C44.3201 6.94501 43.9359 6.87416 44.1441 7.0919C37.233 6.88889 30.156 7.08077 23.2411 7.08077C16.3281 7.08077 9.24893 6.88343 2.33789 7.09326C2.55562 6.86401 2.31763 7.0022 2.68035 6.91564L14.3628 6.90675C14.3628 5.70094 14.2331 4.25583 14.5436 3.27781C15.2861 0.938993 17.1531 0.755902 18.8697 0.744873L18.8698 0.744971Z" fill="#A07765"/>
<path fill-rule="evenodd" clip-rule="evenodd" d="M21.1748 34.5046C21.9243 35.831 23.7054 36.2008 24.8645 35.0792C25.9415 34.0369 25.4367 32.1184 25.5792 30.4096L25.5272 26.9421L22.7876 26.9099C22.6821 28.4012 22.7615 30.1471 22.7615 31.6661C22.7615 32.1552 22.8203 33.5861 22.7135 33.9671C22.4419 34.9353 21.4859 34.4859 21.1748 34.5046Z" fill="#CBE3F9"/>
<path fill-rule="evenodd" clip-rule="evenodd" d="M25.5274 26.9422C26.9147 26.9269 27.7948 26.4543 27.874 25.0628C27.9723 23.3347 27.9992 22.4927 26.7836 21.7571C26.7683 21.7991 26.7543 21.7246 26.7808 21.9876C26.8393 22.5701 27.1132 23.209 25.7208 23.2189C24.1251 23.2302 21.8529 22.7874 21.3438 24.5122C21.0087 25.6477 21.5374 25.6654 20.8809 26.9231L25.5275 26.9422H25.5274Z" fill="#FFE773"/>
<path fill-rule="evenodd" clip-rule="evenodd" d="M20.8745 26.9512L22.7876 26.91L25.5272 26.9422L20.8805 26.923C21.5372 25.6654 21.0085 25.6476 21.3435 24.5122C21.8526 22.7874 24.1248 23.2302 25.7205 23.2188C27.1129 23.209 26.839 22.57 26.7804 21.9876C26.754 21.7245 26.7681 21.7991 26.7833 21.757C25.6524 21.4489 24.2495 21.5898 23.0158 21.5898C21.8387 21.5898 20.1905 21.3542 19.3268 21.9397C18.4566 22.5297 18.4667 23.7945 18.5659 25.1392C18.6651 26.4822 19.501 26.924 20.8745 26.9512Z" fill="#FFF0A5"/>
<path fill-rule="evenodd" clip-rule="evenodd" d="M29.08 47.3509C29.2784 48.2078 30.4385 48.0248 31.3327 48.0242C32.2692 48.0236 33.2057 48.0242 34.1422 48.0242C36.1872 48.0242 38.9821 48.458 38.5639 46.8569C38.3411 46.0038 37.3059 46.1637 36.3898 46.1647C35.4533 46.1657 34.5168 46.1648 33.5803 46.1648C31.525 46.1648 28.7037 45.727 29.08 47.351V47.3509Z" fill="#9EC7F0"/>
<path fill-rule="evenodd" clip-rule="evenodd" d="M20.9449 33.607C20.9497 34.1708 21.0176 34.045 21.1754 34.5046C21.4865 34.4859 22.4425 34.9353 22.7141 33.9671C22.8209 33.5862 22.762 32.1553 22.762 31.6661C22.762 30.1471 22.6827 28.4011 22.7882 26.9099L20.875 26.9512L20.9449 33.6069V33.607Z" fill="#EDF6FF"/>
<path fill-rule="evenodd" clip-rule="evenodd" d="M5.88839 40.1519C6.98576 40.1322 8.09381 40.146 9.19255 40.1461C10.15 40.1462 11.6333 40.4221 11.7023 39.2805C11.7769 38.0476 10.2997 38.2869 9.30494 38.2872C8.1734 38.2875 7.04108 38.2968 5.90983 38.2841C5.22873 38.3172 4.7075 38.5632 4.75274 39.2695C4.79297 39.8971 5.24028 40.1098 5.88849 40.1519H5.88839Z" fill="#A17965"/>
<path fill-rule="evenodd" clip-rule="evenodd" d="M48.0129 47.463C48.2919 46.9215 47.8994 46.3689 47.4901 46.2412C47.1002 46.1194 46.0661 46.1728 45.6045 46.173C44.696 46.1732 42.6932 45.8271 42.3579 46.7176C41.7735 48.2695 43.7723 48.0245 44.8179 48.0243C45.8694 48.0242 47.5676 48.327 48.0129 47.463Z" fill="#9EC7F0"/>
</g>
<defs>
<clipPath id="clip0_493_231">
<rect width="54" height="54" fill="white" transform="translate(0.0449219 0.745117)"/>
</clipPath>
</defs>
</svg>
