<svg width="49" height="49" viewBox="0 0 49 49" fill="none" xmlns="http://www.w3.org/2000/svg">
<path d="M16.7333 36.1689H37.2073L40.7333 38.9389V18.1689H42.7333C43.2637 18.1689 43.7724 18.3797 44.1475 18.7547C44.5226 19.1298 44.7333 19.6385 44.7333 20.1689V47.1689L35.8233 40.1689H18.7333C18.2028 40.1689 17.6941 39.9582 17.3191 39.5832C16.944 39.2081 16.7333 38.6994 16.7333 38.1689V36.1689ZM11.6433 32.1689L2.73328 39.1689V8.16895C2.73328 7.63851 2.94399 7.1298 3.31906 6.75473C3.69414 6.37966 4.20284 6.16895 4.73328 6.16895H34.7333C35.2637 6.16895 35.7724 6.37966 36.1475 6.75473C36.5226 7.1298 36.7333 7.63851 36.7333 8.16895V32.1689H11.6433Z" fill="#002278"/>
</svg>
