<svg width="38" height="39" viewBox="0 0 38 39" fill="none" xmlns="http://www.w3.org/2000/svg">
<path d="M3.16667 9.63411V7.24803C3.16956 6.83221 3.33593 6.43423 3.62981 6.14004C3.9237 5.84586 4.32152 5.6791 4.73733 5.67578H33.2627C34.1303 5.67578 34.8333 6.38036 34.8333 7.24803V32.6035C34.8304 33.0194 34.6641 33.4173 34.3702 33.7115C34.0763 34.0057 33.6785 34.1725 33.2627 34.1758H4.73733C4.32062 34.1754 3.92112 34.0095 3.62661 33.7147C3.3321 33.4199 3.16667 33.0202 3.16667 32.6035V31.0091H31.6667V12.4841L19 23.8841L3.16667 9.63411ZM0 16.7591H7.91667V19.9258H0V16.7591ZM0 24.6758H12.6667V27.8424H0V24.6758Z" fill="#002278"/>
</svg>
