<svg width="44" height="45" viewBox="0 0 44 45" fill="none" xmlns="http://www.w3.org/2000/svg">
<path d="M38.5 31.0584V37.5411C38.5002 38.0052 38.3244 38.4522 38.0079 38.7918C37.6915 39.1313 37.258 39.3383 36.795 39.3707C35.9938 39.4257 35.3393 39.4551 34.8333 39.4551C18.6322 39.4551 5.5 26.3229 5.5 10.1217C5.5 9.61575 5.5275 8.96125 5.58433 8.16008C5.61682 7.69706 5.82373 7.2636 6.16331 6.94716C6.50288 6.63072 6.94984 6.45487 7.414 6.45508H13.8967C14.1241 6.45485 14.3434 6.53915 14.5122 6.69162C14.6809 6.84408 14.7869 7.05381 14.8097 7.28008C14.8518 7.70175 14.8903 8.03725 14.927 8.29208C15.2913 10.8348 16.038 13.3078 17.1417 15.6272C17.3158 15.9939 17.2022 16.4321 16.8722 16.6667L12.9158 19.4937C15.3348 25.1302 19.8267 29.6221 25.4632 32.0411L28.2865 28.0921C28.4019 27.9307 28.5703 27.815 28.7622 27.7651C28.9542 27.7152 29.1576 27.7342 29.337 27.8189C31.6562 28.9205 34.1286 29.6653 36.6703 30.0281C36.9252 30.0647 37.2607 30.1051 37.6787 30.1454C37.9046 30.1686 38.1139 30.2748 38.266 30.4435C38.4181 30.6122 38.5021 30.8313 38.5018 31.0584H38.5Z" fill="#002278"/>
</svg>
