<svg width="50" height="50" viewBox="0 0 50 50" fill="none" xmlns="http://www.w3.org/2000/svg">
<circle cx="24.8139" cy="25.2742" r="24.5745" fill="#FFE4D6"/>
<path fill-rule="evenodd" clip-rule="evenodd" d="M41.0042 43.7619C36.6803 47.5515 31.0153 49.8486 24.8139 49.8486C18.6125 49.8486 12.9476 47.5515 8.62363 43.7618C9.15253 42.5108 9.9302 41.3608 10.9259 40.3846C12.9185 38.4311 15.621 37.3337 18.4389 37.3337H31.1889C34.0068 37.3337 36.7093 38.4311 38.7019 40.3846C39.6976 41.3608 40.4753 42.5108 41.0042 43.7619ZM19.9347 32.2155C21.4816 32.8437 23.1396 33.167 24.8139 33.167C28.1954 33.167 31.4384 31.85 33.8295 29.5058C36.2206 27.1616 37.5639 23.9822 37.5639 20.667C37.5639 17.3518 36.2206 14.1724 33.8295 11.8282C31.4384 9.48395 28.1954 8.16699 24.8139 8.16699C23.1396 8.16699 21.4816 8.49031 19.9347 9.1185C18.3878 9.74668 16.9822 10.6674 15.7983 11.8282C14.6144 12.9889 13.6752 14.3669 13.0344 15.8835C12.3937 17.4 12.0639 19.0255 12.0639 20.667C12.0639 22.3085 12.3937 23.934 13.0344 25.4505C13.6752 26.9671 14.6144 28.3451 15.7983 29.5058C16.9822 30.6666 18.3878 31.5873 19.9347 32.2155Z" fill="#FEB58C"/>
</svg>
